<?xml version="1.0" standalone="no"?>
<!DOCTYPE svg PUBLIC "-//W3C//DTD SVG 20010904//EN"
 "http://www.w3.org/TR/2001/REC-SVG-20010904/DTD/svg10.dtd">
<svg version="1.0" xmlns="http://www.w3.org/2000/svg"
 width="800.000000pt" height="800.000000pt" viewBox="0 0 800.000000 800.000000"
 preserveAspectRatio="xMidYMid meet">
<metadata>
Created by potrace 1.11, written by Peter Selinger 2001-2013
</metadata>
<g transform="translate(0.000000,800.000000) scale(0.100000,-0.100000)"
fill="#000000" stroke="none">
<path d="M2095 6793 c-8 -20 -15 -38 -15 -42 0 -3 -19 -53 -41 -111 -22 -58
-42 -113 -44 -124 -2 -10 -9 -24 -16 -32 -6 -8 -8 -14 -3 -14 4 0 3 -5 -4 -12
-7 -7 -12 -21 -12 -33 0 -12 -4 -25 -8 -31 -5 -5 -19 -38 -31 -74 -13 -36 -27
-73 -32 -82 -5 -10 -9 -23 -9 -29 0 -6 -6 -25 -14 -42 -8 -18 -35 -90 -61
-162 -26 -71 -50 -139 -55 -150 -4 -11 -22 -60 -40 -110 -17 -49 -36 -99 -41
-110 -5 -11 -27 -69 -48 -130 -22 -60 -49 -135 -61 -165 -12 -30 -27 -73 -34
-95 -23 -67 -116 -318 -132 -352 -7 -17 -14 -34 -14 -38 0 -8 -96 -273 -127
-350 -8 -22 -19 -49 -23 -60 -18 -44 -122 -331 -125 -340 -1 -5 -5 -17 -8 -25
-9 -20 -51 -134 -52 -140 -1 -3 -4 -12 -8 -20 -6 -15 -61 -164 -134 -360 -19
-52 -39 -104 -43 -115 -5 -11 -13 -33 -19 -50 -5 -16 -53 -145 -106 -285 -53
-140 -121 -322 -151 -405 -30 -82 -59 -159 -64 -170 -5 -11 -46 -117 -91 -235
-86 -229 -124 -326 -144 -375 -7 -16 -38 -100 -70 -185 -31 -85 -60 -164 -65
-175 -24 -55 -79 -236 -74 -247 10 -25 55 -49 126 -67 106 -27 170 -32 509
-37 l305 -4 21 52 c12 29 40 105 63 168 23 63 45 124 50 135 33 83 120 316
125 335 2 8 25 69 50 135 25 66 53 140 62 165 8 25 20 56 26 70 5 14 11 30 13
35 5 17 30 84 79 210 25 66 48 127 50 135 5 22 94 259 112 298 8 18 16 40 18
50 2 9 12 38 24 65 11 26 21 49 21 52 1 7 120 333 137 375 4 8 7 17 8 20 1 3
4 12 8 20 3 8 35 96 72 195 37 99 71 191 77 205 6 14 12 30 14 35 1 6 25 71
54 145 28 74 53 140 54 145 2 6 8 23 14 38 7 16 12 31 12 34 0 3 6 19 14 36
13 29 69 175 72 187 0 3 4 14 9 25 4 11 27 70 50 130 23 61 45 119 50 130 4
11 9 25 10 30 2 6 19 53 40 105 20 52 51 131 67 175 17 44 35 89 39 100 5 11
20 52 34 90 14 39 30 79 35 90 4 11 27 67 49 125 54 143 160 410 171 435 35
79 80 193 80 203 0 7 5 12 12 12 6 0 8 3 5 6 -4 4 2 23 12 43 11 20 39 82 63
139 23 56 46 102 49 102 4 0 10 -10 14 -22 4 -13 8 -25 9 -28 4 -9 25 -60 47
-113 12 -29 27 -65 34 -82 8 -16 23 -55 35 -85 12 -30 27 -68 35 -85 7 -16 22
-53 34 -82 11 -28 26 -64 33 -80 6 -15 12 -33 13 -39 2 -6 10 -27 18 -45 9
-19 30 -70 47 -114 17 -44 35 -89 39 -100 5 -11 37 -92 71 -180 34 -88 72
-187 85 -220 57 -145 116 -296 143 -370 16 -44 33 -89 38 -100 4 -11 8 -22 9
-25 1 -3 6 -16 13 -30 9 -22 68 -176 133 -350 11 -30 25 -64 29 -75 5 -11 48
-123 95 -250 48 -126 97 -256 111 -288 13 -32 24 -63 24 -68 0 -5 9 -29 21
-53 11 -25 22 -51 23 -58 2 -7 8 -26 15 -43 7 -16 21 -52 31 -80 10 -27 39
-104 65 -170 25 -66 66 -172 90 -235 24 -63 49 -128 56 -145 7 -16 13 -32 13
-35 1 -5 20 -56 36 -95 4 -11 17 -41 29 -67 12 -26 21 -52 21 -58 0 -6 9 -30
21 -54 11 -25 22 -51 23 -58 2 -7 8 -24 13 -38 6 -14 23 -56 38 -95 15 -38 33
-83 40 -100 7 -16 38 -95 70 -175 31 -80 61 -154 65 -165 5 -11 21 -49 36 -85
31 -78 46 -112 70 -165 10 -22 19 -42 19 -45 10 -45 167 -349 198 -383 37 -40
71 -48 86 -19 21 39 -6 216 -61 397 -12 39 -22 75 -24 80 -8 38 -177 519 -204
580 -5 11 -23 58 -40 105 -17 47 -35 94 -40 105 -21 48 -111 284 -115 305 -1
3 -9 22 -18 44 -9 21 -17 44 -17 52 0 7 -4 16 -10 19 -5 3 -10 13 -10 21 0 8
-9 33 -19 57 -11 23 -29 69 -40 102 -12 33 -25 69 -30 80 -5 11 -18 45 -29 75
-11 30 -34 92 -51 138 -17 45 -45 119 -62 165 -17 45 -35 91 -39 102 -5 11
-18 47 -30 80 -11 33 -24 69 -29 80 -5 11 -19 47 -31 80 -12 33 -26 69 -30 80
-5 11 -31 83 -60 160 -28 77 -55 149 -60 160 -5 11 -41 108 -80 215 -39 107
-75 204 -80 215 -5 11 -21 54 -35 95 -15 41 -33 89 -41 105 -7 17 -26 68 -43
115 -16 47 -39 110 -51 140 -12 30 -25 66 -30 80 -4 14 -42 117 -85 230 -42
113 -83 225 -91 250 -8 25 -19 54 -24 65 -5 11 -19 47 -30 80 -12 33 -25 69
-30 80 -8 18 -46 122 -70 195 -5 14 -18 50 -30 80 -11 30 -30 82 -42 115 -11
33 -25 71 -31 85 -6 14 -11 30 -13 35 -3 12 -72 204 -81 225 -3 8 -7 17 -7 20
-1 3 -9 26 -19 52 l-18 47 -570 0 -569 -1 -15 -35z"/>
<path d="M3650 6817 c0 -7 4 -39 9 -72 6 -33 12 -78 16 -99 8 -54 13 -76 47
-196 17 -58 32 -112 33 -120 2 -8 13 -41 24 -72 11 -32 17 -58 14 -58 -3 0 -1
-6 5 -13 6 -7 13 -24 16 -37 3 -14 35 -113 71 -220 36 -107 67 -199 69 -205 2
-5 6 -17 9 -25 3 -8 13 -35 21 -60 56 -170 246 -699 296 -825 4 -11 19 -49 33
-85 14 -36 35 -92 48 -125 13 -33 24 -62 25 -65 2 -13 45 -111 92 -215 54
-116 88 -150 111 -107 11 22 24 123 37 302 2 41 7 100 9 130 9 121 14 210 20
325 13 251 15 285 30 675 8 209 15 498 20 847 l5 332 -530 0 c-404 0 -530 -3
-530 -12z"/>
<path d="M6246 6487 c2 -328 9 -909 19 -1783 3 -225 7 -634 10 -909 3 -275 7
-759 10 -1075 13 -1313 13 -1300 1 -1301 -6 -1 -22 -2 -36 -4 -14 -1 -66 -5
-116 -9 -90 -7 -107 -9 -169 -22 -43 -9 -102 -41 -108 -59 -8 -19 25 -41 73
-51 58 -11 645 -4 880 10 133 9 255 22 331 37 61 12 77 31 84 97 2 15 6 45 8
67 13 96 22 199 32 375 3 52 8 131 11 175 2 44 7 139 9 210 3 72 7 184 10 250
12 308 18 502 30 1045 12 523 23 1406 29 2192 2 240 7 441 10 447 4 6 4 11 -1
11 -4 0 -8 20 -8 45 0 25 2 45 5 45 3 0 5 123 5 273 l0 272 -561 2 -562 2 4
-342z"/>
</g>
</svg>
