<?xml version="1.0" encoding="utf-8"?>
<!-- Generator: Adobe Illustrator 23.0.2, SVG Export Plug-In . SVG Version: 6.00 Build 0)  -->
<svg version="1.1" id="Layer_1" xmlns="http://www.w3.org/2000/svg" xmlns:xlink="http://www.w3.org/1999/xlink" x="0px" y="0px"
	 viewBox="0 0 500 300" style="enable-background:new 0 0 500 300;" xml:space="preserve">
<style type="text/css">
	.st0{fill:#FFEECC;}
	.st1{fill:#855B00;}
	.st2{fill:#E7B400;}
	.st3{clip-path:url(#SVGID_2_);}
	.st4{fill:#FF7989;}
	.st5{fill:#CAC8C8;}
	.st6{fill:#FF4957;}
	.st7{fill:#FFFFFF;}
	.st8{fill:#EEEEEE;}
	.st9{fill:#00B447;}
</style>
<title>1</title>
<rect x="-1.3" y="-3" class="st0" width="501.1" height="305"/>
<rect x="-1.3" y="-3" class="st1" width="501.1" height="188.6"/>
<polygon class="st2" points="-3.1,193 -3.1,89.3 258.3,122.8 500,89.3 500,193 245.2,297.9 "/>
<g>
	<g>
		<g>
			<defs>
				<polygon id="SVGID_1_" points="-3.1,173 -3.1,-105.9 258.3,17 500,-105.9 500,173 245.2,277.9 				"/>
			</defs>
			<clipPath id="SVGID_2_">
				<use xlink:href="#SVGID_1_"  style="overflow:visible;"/>
			</clipPath>
			<g class="st3">
				<path class="st4" d="M191,47.2h161c2,0,3.6,1.6,3.6,3.6v219.5c0,2-1.6,3.6-3.6,3.6H191c-2,0-3.6-1.6-3.6-3.6V50.8
					C187.4,48.8,189,47.2,191,47.2z"/>
				<polygon class="st5" points="347.3,264.9 195.7,264.9 195.7,56.2 315.1,56.2 347.3,56.2 347.3,91.5 				"/>
				<path class="st6" d="M300.6,47.2c0,2.6-1.6,4.7-3.6,4.7h-50.4c-2,0-3.6-2.1-3.6-4.7l0,0c0-2.6,1.6-4.7,3.6-4.7H297
					C299.1,42.5,300.6,44.6,300.6,47.2z"/>
				<polygon class="st7" points="312.5,105.9 312.5,277.8 160.8,277.8 160.8,69.2 276.5,69.2 				"/>
				<polygon class="st8" points="312.5,105.9 276.5,105.9 276.5,69.2 				"/>
				<rect x="184.8" y="116.9" class="st5" width="105.7" height="6.8"/>
				<rect x="184.8" y="134" class="st5" width="106.1" height="1.9"/>
				<rect x="184.8" y="141.2" class="st5" width="106.1" height="1.9"/>
				<rect x="184.8" y="148.4" class="st5" width="53" height="1.9"/>
				<rect x="184.8" y="155.6" class="st5" width="106.1" height="1.9"/>
				<rect x="184.8" y="162.8" class="st5" width="106.1" height="1.9"/>
				<rect x="184.8" y="170" class="st5" width="53" height="1.9"/>
				<rect x="184.8" y="177.2" class="st5" width="82" height="1.9"/>
				<rect x="184.8" y="184.5" class="st5" width="82" height="1.9"/>
				<rect x="184.8" y="191.7" class="st5" width="106.1" height="1.9"/>
				<rect x="184.8" y="198.9" class="st5" width="106.1" height="1.9"/>
				<rect x="184.8" y="206.1" class="st5" width="106.1" height="1.9"/>
				<rect x="184.8" y="213.3" class="st5" width="51.8" height="1.9"/>
				<rect x="184.8" y="220.5" class="st5" width="106.1" height="1.9"/>
				<rect x="184.8" y="227.7" class="st5" width="106.1" height="1.9"/>
				<rect x="184.8" y="235.5" class="st5" width="106.1" height="1.9"/>
				<polygon class="st9" points="257.8,243.5 246.3,255 242,250.7 239.6,253 244,257.3 246.3,259.7 248.6,257.3 260.1,245.9 				"/>
			</g>
		</g>
	</g>
</g>
</svg>
