<?xml version="1.0" encoding="utf-8"?>
<!-- Generator: Adobe Illustrator 22.1.0, SVG Export Plug-In . SVG Version: 6.00 Build 0)  -->
<svg version="1.1" id="OBJECTS" xmlns="http://www.w3.org/2000/svg" xmlns:xlink="http://www.w3.org/1999/xlink" x="0px" y="0px"
	 viewBox="0 0 357 300" style="enable-background:new 0 0 357 300;" xml:space="preserve">
<style type="text/css">
	.st0{fill:#855b00;}
	.st1{fill:#FAFF45;}
	.st2{fill:#E7B400;}
</style>
<rect x="-3" y="-2" class="st0" width="364" height="305"/>
<rect x="-3" y="-2" class="st1" width="225.1" height="305"/>
<polygon class="st2" points="255,304.1 35,304.1 75,145 35,-2.1 255,-2.1 356.2,153 "/>
<title>1</title>
<path class="st1" d="M243.7,109.6c3.2,3.5,5,8.1,5.3,12.8v90c0,4.1-3.3,7.5-7.4,7.5h-0.1h-105c-4.1,0-7.5-3.3-7.5-7.4l0,0V87.4
	c0-4.1,3.3-7.5,7.4-7.5l0,0h70c2.3,0.1,4.7,0.6,6.9,1.6c2.2,0.8,4.2,2.1,5.9,3.7L243.7,109.6z M239,210v-80h-32.5
	c-4.1,0-7.5-3.3-7.5-7.4c0,0,0,0,0-0.1V90h-60v120H239z M159,142.5c0-0.7,0.2-1.3,0.7-1.8s1.1-0.8,1.8-0.7h55c0.7,0,1.3,0.2,1.8,0.7
	s0.8,1.1,0.7,1.8v5c0.1,1.3-1,2.4-2.3,2.5c-0.1,0-0.1,0-0.2,0h-55c-1.3,0.1-2.4-1-2.5-2.3c0-0.1,0-0.1,0-0.2V142.5z M216.5,160
	c1.3-0.1,2.4,1,2.5,2.3c0,0.1,0,0.1,0,0.2v5c0.1,1.3-1,2.4-2.3,2.5c-0.1,0-0.1,0-0.2,0h-55c-1.3,0.1-2.4-1-2.5-2.3
	c0-0.1,0-0.1,0-0.2v-5c-0.1-1.3,1-2.4,2.3-2.5c0.1,0,0.1,0,0.2,0H216.5z M216.5,180c1.3-0.1,2.4,1,2.5,2.3c0,0.1,0,0.1,0,0.2v5
	c0.1,1.3-1,2.4-2.3,2.5c-0.1,0-0.1,0-0.2,0h-55c-1.3,0.1-2.4-1-2.5-2.3c0-0.1,0-0.1,0-0.2v-5c-0.1-1.3,1-2.4,2.3-2.5
	c0.1,0,0.1,0,0.2,0H216.5z M209,90.6V120h29.4c-0.3-1.2-0.9-2.3-1.7-3.2l-24.5-24.5C211.3,91.5,210.2,90.9,209,90.6z"/>
</svg>
