<?xml version="1.0" encoding="utf-8"?>
<!-- Generator: Adobe Illustrator 23.0.2, SVG Export Plug-In . SVG Version: 6.00 Build 0)  -->
<svg version="1.1" id="Layer_1" xmlns="http://www.w3.org/2000/svg" xmlns:xlink="http://www.w3.org/1999/xlink" x="0px" y="0px"
	 viewBox="0 0 500 300" style="enable-background:new 0 0 500 300;" xml:space="preserve">
<style type="text/css">
	.st0{fill:#FFEECC;}
	.st1{fill:#855B00;}
	.st2{fill:#E7B400;}
	.st3{opacity:0.2;clip-path:url(#SVGID_2_);}
	.st4{fill:#4D4740;}
	.st5{fill:#4C463F;}
	.st6{fill:#4B453F;}
	.st7{fill:#4A453E;}
	.st8{fill:#4A443D;}
	.st9{fill:#49433C;}
	.st10{fill:#48423B;}
	.st11{clip-path:url(#SVGID_4_);fill:#FFFFFF;}
	.st12{clip-path:url(#SVGID_6_);fill:#E2E2E2;}
	.st13{clip-path:url(#SVGID_8_);fill:#E2E2E2;}
	.st14{clip-path:url(#SVGID_10_);fill:#E2E2E2;}
	.st15{clip-path:url(#SVGID_12_);fill:#E2E2E2;}
	.st16{clip-path:url(#SVGID_14_);fill:#E2E2E2;}
	.st17{clip-path:url(#SVGID_16_);fill:#E2E2E2;}
	.st18{clip-path:url(#SVGID_18_);fill:#E2E2E2;}
	.st19{clip-path:url(#SVGID_20_);fill:#E2E2E2;}
	.st20{clip-path:url(#SVGID_22_);fill:#00B447;}
	.st21{clip-path:url(#SVGID_24_);fill:#FF4957;}
	.st22{clip-path:url(#SVGID_26_);fill:#E2E2E2;}
	.st23{clip-path:url(#SVGID_28_);fill:#E2E2E2;}
	.st24{clip-path:url(#SVGID_30_);fill:#E2E2E2;}
	.st25{clip-path:url(#SVGID_32_);fill:#E2E2E2;}
	.st26{clip-path:url(#SVGID_34_);fill:#E2E2E2;}
	.st27{clip-path:url(#SVGID_36_);fill:#E2E2E2;}
	.st28{clip-path:url(#SVGID_38_);fill:#E2E2E2;}
	.st29{clip-path:url(#SVGID_40_);fill:#E2E2E2;}
	.st30{clip-path:url(#SVGID_42_);fill:#E2E2E2;}
	.st31{clip-path:url(#SVGID_44_);fill:#E2E2E2;}
</style>
<rect x="-1.3" y="-3" class="st0" width="501.1" height="305"/>
<rect x="-1.3" y="-3" class="st1" width="501.1" height="188.6"/>
<polygon class="st2" points="-3.1,193 -3.1,89.3 258.3,122.8 500,89.3 500,193 245.2,297.9 "/>
<title>1</title>
<g>
	<g>
		<g>
			<defs>
				<polygon id="SVGID_1_" points="-3.1,173 -3.1,-105.9 258.3,17 500,-105.9 500,173 245.2,277.9 				"/>
			</defs>
			<clipPath id="SVGID_2_">
				<use xlink:href="#SVGID_1_"  style="overflow:visible;"/>
			</clipPath>
			<g class="st3">
				<path class="st4" d="M321.8,57.6v-12c0-3.4-3.4-6.2-7.6-6.2s-7.6,2.8-7.6,6.2v12h-30v-12c0-3.4-3.4-6.2-7.6-6.2
					s-7.5,2.8-7.5,6.2v12h-30.4v-12c0-3.4-3.4-6.2-7.5-6.2s-7.6,2.8-7.6,6.2v12h-32.5v-12c0-3.4-3.4-6.2-7.6-6.2s-7.6,2.8-7.6,6.2
					v12h-36.2v222.9H358V57.6H321.8z"/>
				<path class="st5" d="M321.4,57.1v-12c0-3.4-3.4-6.2-7.6-6.2s-7.6,2.8-7.6,6.2v12h-30v-12c0-3.4-3.4-6.2-7.6-6.2
					s-7.5,2.8-7.5,6.2v12h-30.4v-12c0-3.4-3.4-6.2-7.5-6.2s-7.6,2.8-7.6,6.2v12h-32.5v-12c0-3.4-3.4-6.2-7.5-6.2s-7.6,2.8-7.6,6.2
					v12h-36V280h225.6V57.1H321.4z"/>
				<path class="st6" d="M321,56.7v-12c0-3.4-3.4-6.2-7.6-6.2s-7.6,2.8-7.6,6.2v12h-30v-12c0-3.4-3.4-6.2-7.6-6.2s-7.5,2.8-7.5,6.2
					v12h-30.4v-12c0-3.4-3.4-6.2-7.6-6.2s-7.5,2.8-7.5,6.2v12h-32.5v-12c0-3.4-3.4-6.2-7.5-6.2s-7.6,2.8-7.6,6.2v12h-36.2v222.9H357
					V56.7H321z"/>
				<path class="st7" d="M320.5,56.3v-12c0-3.4-3.4-6.2-7.5-6.2c-4.2,0-7.6,2.8-7.6,6.2v12h-30v-12c0-3.4-3.4-6.2-7.6-6.2
					s-7.6,2.8-7.6,6.2v12H230v-12c0-3.4-3.4-6.2-7.6-6.2s-7.6,2.8-7.6,6.2v12h-32.4v-12c0-3.4-3.4-6.2-7.6-6.2s-7.5,2.8-7.5,6.2v12
					h-36.2v222.9h225.6V56.3H320.5z"/>
				<path class="st8" d="M320.1,55.8v-12c0-3.4-3.4-6.2-7.5-6.2s-7.6,2.8-7.6,6.2v12h-30v-12c0-3.4-3.4-6.2-7.6-6.2
					s-7.6,2.8-7.6,6.2v12h-30.4v-12c0-3.4-3.4-6.2-7.6-6.2s-7.5,2.8-7.5,6.2v12H182v-12c0-3.4-3.4-6.2-7.6-6.2s-7.5,2.8-7.5,6.2v12
					h-36.2v222.9h225.6V55.8H320.1z"/>
				<path class="st9" d="M319.6,55.4v-12c0-3.4-3.4-6.2-7.5-6.2c-4.2,0-7.6,2.8-7.6,6.2v12h-29.9v-12c0-3.4-3.4-6.2-7.6-6.2
					s-7.6,2.8-7.6,6.2v12H229v-12c0-3.4-3.4-6.2-7.6-6.2S214,40,214,43.4v12h-32.4v-12c0-3.4-3.4-6.2-7.6-6.2s-7.5,2.8-7.5,6.2v12
					h-36.2v222.9h225.6V55.4H319.6z"/>
				<path class="st10" d="M319.2,54.9v-12c0-3.4-3.4-6.2-7.5-6.2c-4.2,0-7.6,2.8-7.6,6.2v12h-30v-12c0-3.4-3.4-6.2-7.6-6.2
					s-7.6,2.8-7.6,6.2v12h-30.4v-12c0-3.4-3.4-6.2-7.6-6.2s-7.5,2.8-7.5,6.2v12H181v-12c0-3.4-3.4-6.2-7.6-6.2s-7.5,2.8-7.5,6.2v12
					h-36.2v222.9h225.6V54.9H319.2z"/>
			</g>
		</g>
	</g>
	<g>
		<g>
			<defs>
				<polygon id="SVGID_3_" points="-3.1,173 -3.1,-105.9 258.3,17 500,-105.9 500,173 245.2,277.9 				"/>
			</defs>
			<clipPath id="SVGID_4_">
				<use xlink:href="#SVGID_3_"  style="overflow:visible;"/>
			</clipPath>
			<rect x="129.1" y="55.1" class="st11" width="225.6" height="222.9"/>
		</g>
	</g>
	<g>
		<g>
			<defs>
				<polygon id="SVGID_5_" points="-3.1,173 -3.1,-105.9 258.3,17 500,-105.9 500,173 245.2,277.9 				"/>
			</defs>
			<clipPath id="SVGID_6_">
				<use xlink:href="#SVGID_5_"  style="overflow:visible;"/>
			</clipPath>
			<rect x="129.1" y="86.4" class="st12" width="225.6" height="6.6"/>
		</g>
	</g>
	<g>
		<g>
			<defs>
				<polygon id="SVGID_7_" points="-3.1,173 -3.1,-105.9 258.3,17 500,-105.9 500,173 245.2,277.9 				"/>
			</defs>
			<clipPath id="SVGID_8_">
				<use xlink:href="#SVGID_7_"  style="overflow:visible;"/>
			</clipPath>
			<rect x="129.1" y="94.7" class="st13" width="225.6" height="6.6"/>
		</g>
	</g>
	<g>
		<g>
			<defs>
				<polygon id="SVGID_9_" points="-3.1,173 -3.1,-105.9 258.3,17 500,-105.9 500,173 245.2,277.9 				"/>
			</defs>
			<clipPath id="SVGID_10_">
				<use xlink:href="#SVGID_9_"  style="overflow:visible;"/>
			</clipPath>
			<rect x="156.3" y="130.1" class="st14" width="35.7" height="35.7"/>
		</g>
	</g>
	<g>
		<g>
			<defs>
				<polygon id="SVGID_11_" points="-3.1,173 -3.1,-105.9 258.3,17 500,-105.9 500,173 245.2,277.9 				"/>
			</defs>
			<clipPath id="SVGID_12_">
				<use xlink:href="#SVGID_11_"  style="overflow:visible;"/>
			</clipPath>
			<rect x="201.3" y="130.1" class="st15" width="35.7" height="35.7"/>
		</g>
	</g>
	<g>
		<g>
			<defs>
				<polygon id="SVGID_13_" points="-3.1,173 -3.1,-105.9 258.3,17 500,-105.9 500,173 245.2,277.9 				"/>
			</defs>
			<clipPath id="SVGID_14_">
				<use xlink:href="#SVGID_13_"  style="overflow:visible;"/>
			</clipPath>
			<rect x="246.6" y="130.1" class="st16" width="35.7" height="35.7"/>
		</g>
	</g>
	<g>
		<g>
			<defs>
				<polygon id="SVGID_15_" points="-3.1,173 -3.1,-105.9 258.3,17 500,-105.9 500,173 245.2,277.9 				"/>
			</defs>
			<clipPath id="SVGID_16_">
				<use xlink:href="#SVGID_15_"  style="overflow:visible;"/>
			</clipPath>
			<rect x="291.9" y="130.1" class="st17" width="35.7" height="35.7"/>
		</g>
	</g>
	<g>
		<g>
			<defs>
				<polygon id="SVGID_17_" points="-3.1,173 -3.1,-105.9 258.3,17 500,-105.9 500,173 245.2,277.9 				"/>
			</defs>
			<clipPath id="SVGID_18_">
				<use xlink:href="#SVGID_17_"  style="overflow:visible;"/>
			</clipPath>
			<rect x="156.1" y="173.9" class="st18" width="35.7" height="35.7"/>
		</g>
	</g>
	<g>
		<g>
			<defs>
				<polygon id="SVGID_19_" points="-3.1,173 -3.1,-105.9 258.3,17 500,-105.9 500,173 245.2,277.9 				"/>
			</defs>
			<clipPath id="SVGID_20_">
				<use xlink:href="#SVGID_19_"  style="overflow:visible;"/>
			</clipPath>
			<rect x="201.1" y="173.9" class="st19" width="35.7" height="35.7"/>
		</g>
	</g>
	<g>
		<g>
			<defs>
				<polygon id="SVGID_21_" points="-3.1,173 -3.1,-105.9 258.3,17 500,-105.9 500,173 245.2,277.9 				"/>
			</defs>
			<clipPath id="SVGID_22_">
				<use xlink:href="#SVGID_21_"  style="overflow:visible;"/>
			</clipPath>
			<rect x="209.4" y="182.2" class="st20" width="19" height="19"/>
		</g>
	</g>
	<g>
		<g>
			<defs>
				<polygon id="SVGID_23_" points="-3.1,173 -3.1,-105.9 258.3,17 500,-105.9 500,173 245.2,277.9 				"/>
			</defs>
			<clipPath id="SVGID_24_">
				<use xlink:href="#SVGID_23_"  style="overflow:visible;"/>
			</clipPath>
			<rect x="300.2" y="138.5" class="st21" width="19" height="19"/>
		</g>
	</g>
	<g>
		<g>
			<defs>
				<polygon id="SVGID_25_" points="-3.1,173 -3.1,-105.9 258.3,17 500,-105.9 500,173 245.2,277.9 				"/>
			</defs>
			<clipPath id="SVGID_26_">
				<use xlink:href="#SVGID_25_"  style="overflow:visible;"/>
			</clipPath>
			<rect x="246.4" y="173.9" class="st22" width="35.7" height="35.7"/>
		</g>
	</g>
	<g>
		<g>
			<defs>
				<polygon id="SVGID_27_" points="-3.1,173 -3.1,-105.9 258.3,17 500,-105.9 500,173 245.2,277.9 				"/>
			</defs>
			<clipPath id="SVGID_28_">
				<use xlink:href="#SVGID_27_"  style="overflow:visible;"/>
			</clipPath>
			<rect x="291.7" y="173.9" class="st23" width="35.7" height="35.7"/>
		</g>
	</g>
	<g>
		<g>
			<defs>
				<polygon id="SVGID_29_" points="-3.1,173 -3.1,-105.9 258.3,17 500,-105.9 500,173 245.2,277.9 				"/>
			</defs>
			<clipPath id="SVGID_30_">
				<use xlink:href="#SVGID_29_"  style="overflow:visible;"/>
			</clipPath>
			<rect x="156.1" y="217.6" class="st24" width="35.7" height="35.7"/>
		</g>
	</g>
	<g>
		<g>
			<defs>
				<polygon id="SVGID_31_" points="-3.1,173 -3.1,-105.9 258.3,17 500,-105.9 500,173 245.2,277.9 				"/>
			</defs>
			<clipPath id="SVGID_32_">
				<use xlink:href="#SVGID_31_"  style="overflow:visible;"/>
			</clipPath>
			<rect x="201.1" y="217.6" class="st25" width="35.7" height="35.7"/>
		</g>
	</g>
	<g>
		<g>
			<defs>
				<polygon id="SVGID_33_" points="-3.1,173 -3.1,-105.9 258.3,17 500,-105.9 500,173 245.2,277.9 				"/>
			</defs>
			<clipPath id="SVGID_34_">
				<use xlink:href="#SVGID_33_"  style="overflow:visible;"/>
			</clipPath>
			<rect x="246.4" y="217.6" class="st26" width="35.7" height="35.7"/>
		</g>
	</g>
	<g>
		<g>
			<defs>
				<polygon id="SVGID_35_" points="-3.1,173 -3.1,-105.9 258.3,17 500,-105.9 500,173 245.2,277.9 				"/>
			</defs>
			<clipPath id="SVGID_36_">
				<use xlink:href="#SVGID_35_"  style="overflow:visible;"/>
			</clipPath>
			<rect x="291.7" y="217.6" class="st27" width="35.7" height="35.7"/>
		</g>
	</g>
	<g>
		<g>
			<defs>
				<polygon id="SVGID_37_" points="-3.1,173 -3.1,-105.9 258.3,17 500,-105.9 500,173 245.2,277.9 				"/>
			</defs>
			<clipPath id="SVGID_38_">
				<use xlink:href="#SVGID_37_"  style="overflow:visible;"/>
			</clipPath>
			<path class="st28" d="M180.4,43.1c0-3.4-3.4-6.2-7.5-6.2l0,0c-4.2,0-7.6,2.8-7.6,6.2v24c0,3.4,3.4,6.2,7.6,6.2l0,0
				c4.2,0,7.5-2.8,7.5-6.2V43.1z"/>
		</g>
	</g>
	<g>
		<g>
			<defs>
				<polygon id="SVGID_39_" points="-3.1,173 -3.1,-105.9 258.3,17 500,-105.9 500,173 245.2,277.9 				"/>
			</defs>
			<clipPath id="SVGID_40_">
				<use xlink:href="#SVGID_39_"  style="overflow:visible;"/>
			</clipPath>
			<path class="st29" d="M227.9,43.1c0-3.4-3.4-6.2-7.6-6.2l0,0c-4.2,0-7.5,2.8-7.5,6.2v24c0,3.4,3.4,6.2,7.5,6.2l0,0
				c4.2,0,7.6-2.8,7.6-6.2V43.1z"/>
		</g>
	</g>
	<g>
		<g>
			<defs>
				<polygon id="SVGID_41_" points="-3.1,173 -3.1,-105.9 258.3,17 500,-105.9 500,173 245.2,277.9 				"/>
			</defs>
			<clipPath id="SVGID_42_">
				<use xlink:href="#SVGID_41_"  style="overflow:visible;"/>
			</clipPath>
			<path class="st30" d="M273.4,43.1c0-3.4-3.4-6.2-7.6-6.2l0,0c-4.2,0-7.5,2.8-7.5,6.2v24c0,3.4,3.4,6.2,7.5,6.2l0,0
				c4.2,0,7.6-2.8,7.6-6.2V43.1z"/>
		</g>
	</g>
	<g>
		<g>
			<defs>
				<polygon id="SVGID_43_" points="-3.1,173 -3.1,-105.9 258.3,17 500,-105.9 500,173 245.2,277.9 				"/>
			</defs>
			<clipPath id="SVGID_44_">
				<use xlink:href="#SVGID_43_"  style="overflow:visible;"/>
			</clipPath>
			<path class="st31" d="M318.6,43.1c0-3.4-3.4-6.2-7.6-6.2l0,0c-4.2,0-7.6,2.8-7.6,6.2v24c0,3.4,3.4,6.2,7.6,6.2l0,0
				c4.2,0,7.6-2.8,7.6-6.2V43.1z"/>
		</g>
	</g>
</g>
</svg>
