<?xml version="1.0" encoding="utf-8"?>
<!-- Generator: Adobe Illustrator 22.1.0, SVG Export Plug-In . SVG Version: 6.00 Build 0)  -->
<svg version="1.1" id="OBJECTS" xmlns="http://www.w3.org/2000/svg" xmlns:xlink="http://www.w3.org/1999/xlink" x="0px" y="0px"
	 viewBox="0 0 357 300" style="enable-background:new 0 0 357 300;" xml:space="preserve">
<style type="text/css">
	.st0{fill:#855b00;}
	.st1{fill:#FAFF45;}
	.st2{fill:#E7B400;}
</style>
<rect x="-3" y="-2" class="st0" width="364" height="305"/>
<rect x="-3" y="-2" class="st1" width="225.1" height="305"/>
<polygon class="st2" points="255,304.1 35,304.1 75,145 35,-2.1 255,-2.1 356.2,153 "/>
<title>1</title>
<g>
	<path class="st1" d="M143.1,94.7c8,0,14.5-6.5,14.4-14.5S151,65.7,143,65.8c-8,0-14.4,6.5-14.4,14.5S135.1,94.7,143.1,94.7
		L143.1,94.7z"/>
	<path class="st1" d="M171.5,160.9h-1.3v-2.1c1.5-0.7,2.6-2,3.3-3.4c0-14.9-0.2-45.2-0.3-45.5c-1.8-7.6-6.6-12.3-13.7-13.5h-0.2l0,0
		c-3,0-27.4,0-29.4,0c-1.1,0-2.3,0.1-3.4,0.3c-7.2,1.2-12.1,6-13.9,13.6c0,0.2-0.3,30.6-0.3,45.5c1,1.6,2,3.3,4.1,3.7
		c3,1,6.2-0.7,7.1-3.7c0.2-0.5,0.2-1,0.2-1.5c0.1-0.9,0.1-1.8,0-2.7v-34.4h2.6v98.9c0,1.4,0.1,2.9,0.3,4.2c0.6,2.8,2.8,4.3,5.2,5.4
		h3.8c4.5-1.5,5.9-4.8,5.9-9.4c-0.2-18.2,0-36.3,0-54.4v-2.4h2.6v2.4c0,18.1,0.1,36.2,0,54.3c0,4.6,1.4,8,5.9,9.6h3.8
		c4.5-1.6,5.8-5,5.8-9.5c0-14.1,0-28.3,0-42.5v-57.2h2.1v34.5c-0.1,0.9-0.1,1.8,0,2.7c0.1,2.5,1.9,4.7,4.3,5.3v1.8h-1.3
		c-2.4,0.2-4.2,2.1-4.1,4.5v29.9c-0.1,2.4,1.7,4.4,4.1,4.5h6.5c2.4-0.1,4.2-2.1,4.1-4.5v-29.9C175.7,163,173.9,160.9,171.5,160.9
		L171.5,160.9z M143.1,97.7h3.5l-2,5.2h-2.8l-2-5.2H143.1z M143.1,132l-3.7-3l2.4-23.6h2.7l2.4,23.6L143.1,132z"/>
	<path class="st1" d="M232.9,94.7c8,0,14.5-6.4,14.5-14.5s-6.4-14.5-14.5-14.5c-8,0-14.5,6.4-14.5,14.5l0,0
		C218.3,88.3,224.9,94.7,232.9,94.7z"/>
	<path class="st1" d="M261.2,160.9h-1.4v-2.1c1.5-0.8,2.6-2,3.3-3.4c0-14.9-0.2-45.2-0.3-45.5c-1.8-7.6-6.6-12.3-13.7-13.5h-0.2l0,0
		c-3,0-27.4,0-29.4,0c-1.1,0-2.3,0.1-3.4,0.3c-7.2,1.2-12.1,6-13.9,13.6c0,0.2-0.3,30.6-0.3,45.5c1,1.6,2,3.3,4.1,3.7
		c3,1,6.2-0.7,7.1-3.7c0.2-0.5,0.2-1,0.2-1.5c0.1-0.9,0.1-1.8,0-2.7v-34.4h2.6v2.5c0,32.1,0,64.3,0,96.4c0,1.4,0.1,2.9,0.3,4.2
		c0.6,2.8,2.8,4.3,5.2,5.4h3.9c4.5-1.5,5.9-4.8,5.9-9.4c-0.2-18.2,0-36.3,0-54.4v-2.4h2.6v2.4c0,18.1,0.1,36.2,0,54.3
		c0,4.6,1.4,8,5.9,9.6h3.8c4.5-1.6,5.8-5,5.8-9.5c0-14.1,0-28.3,0-42.5v-57.2h2.1v34.5c0,0.9,0,1.8,0,2.7c0.1,2.5,1.9,4.7,4.3,5.3
		v1.8h-1.4c-2.4,0.1-4.2,2.1-4.1,4.5v29.9c-0.1,2.4,1.7,4.4,4.1,4.5h6.5c2.4-0.1,4.2-2.1,4.1-4.5v-29.9
		C265.3,163,263.5,161,261.2,160.9z M232.7,97.7h3.5l-2,5.2h-2.8l-2-5.2H232.7z M232.9,132l-3.7-3l2.4-23.6h2.7l2.4,23.6L232.9,132z
		"/>
</g>
</svg>
