<?xml version="1.0" encoding="utf-8"?>
<!-- Generator: Adobe Illustrator 23.0.2, SVG Export Plug-In . SVG Version: 6.00 Build 0)  -->
<svg version="1.1" id="Layer_1" xmlns="http://www.w3.org/2000/svg" xmlns:xlink="http://www.w3.org/1999/xlink" x="0px" y="0px"
	 viewBox="0 0 500 300" style="enable-background:new 0 0 500 300;" xml:space="preserve">
<style type="text/css">
	.st0{fill:#FFEECC;}
	.st1{fill:#855B00;}
	.st2{fill:#E7B400;}
	.st3{clip-path:url(#SVGID_2_);}
	.st4{opacity:0.2;}
	.st5{fill:#4F4A43;}
	.st6{fill:#4F4942;}
	.st7{fill:#4E4841;}
	.st8{fill:#4D4740;}
	.st9{fill:#4C463F;}
	.st10{fill:#4B453F;}
	.st11{fill:#4A453E;}
	.st12{fill:#4A443D;}
	.st13{fill:#49433C;}
	.st14{fill:#48423B;}
	.st15{fill:#CAC8C8;}
	.st16{fill:#EEEEEE;}
	.st17{fill:#FFFFFF;}
	.st18{fill:#FF7989;}
</style>
<rect x="-1.3" y="-3" class="st0" width="501.1" height="305"/>
<rect x="-1.3" y="-3" class="st1" width="501.1" height="188.6"/>
<polygon class="st2" points="-3.1,193 -3.1,89.3 258.3,122.8 500,89.3 500,193 245.2,297.9 "/>
<title>1</title>
<g>
	<g>
		<g>
			<defs>
				<polygon id="SVGID_1_" points="-3.1,173 -3.1,-105.9 258.3,17 500,-105.9 500,173 245.2,277.9 				"/>
			</defs>
			<clipPath id="SVGID_2_">
				<use xlink:href="#SVGID_1_"  style="overflow:visible;"/>
			</clipPath>
			<g id="OBJECTS" class="st3">
				<g class="st4">
					<polygon class="st5" points="154,158.1 246.7,242.1 333.2,163.7 387,114.9 333.2,114.9 333.2,58.3 154,58.3 154,114.9 
						106.4,114.9 					"/>
					<polygon class="st6" points="153.7,157.7 246.4,241.7 332.9,163.3 386.7,114.6 332.9,114.6 332.9,57.9 153.7,57.9 153.7,114.6 
						106.1,114.6 					"/>
					<polygon class="st7" points="153.4,157.3 246.1,241.3 332.6,163 386.4,114.2 332.6,114.2 332.6,57.5 153.4,57.5 153.4,114.2 
						105.8,114.2 					"/>
					<polygon class="st8" points="153.1,157 245.8,241 332.3,162.6 386.1,113.8 332.3,113.8 332.3,57.2 153.1,57.2 153.1,113.8 
						105.5,113.8 					"/>
					<polygon class="st9" points="152.8,156.6 245.5,240.6 332,162.2 385.8,113.5 332,113.5 332,56.8 152.8,56.8 152.8,113.5 
						105.2,113.5 					"/>
					<polygon class="st10" points="152.4,156.2 245.2,240.2 331.6,161.9 385.4,113.1 331.6,113.1 331.6,56.4 152.4,56.4 
						152.4,113.1 104.9,113.1 					"/>
					<polygon class="st11" points="152.1,155.9 244.9,239.9 331.3,161.5 385.1,112.7 331.3,112.7 331.3,56.1 152.1,56.1 
						152.1,112.7 104.6,112.7 					"/>
					<polygon class="st12" points="151.8,155.5 244.5,239.5 331,161.1 384.8,112.4 331,112.4 331,55.7 151.8,55.7 151.8,112.4 
						104.3,112.4 					"/>
					<polygon class="st13" points="151.5,155.1 244.2,239.1 330.7,160.8 384.5,112 330.7,112 330.7,55.3 151.5,55.3 151.5,112 
						104,112 					"/>
					<polygon class="st14" points="151.2,154.8 243.9,238.8 330.4,160.4 384.2,111.6 330.4,111.6 330.4,55 151.2,55 151.2,111.6 
						103.6,111.6 					"/>
				</g>
				<polygon class="st15" points="384.2,111.7 330.4,160.4 243.9,238.8 151.2,154.8 103.6,111.7 				"/>
				<polygon class="st16" points="384.2,111.1 384.2,280.9 103.6,280.9 103.6,111.1 243.9,239.3 				"/>
				<polygon class="st17" points="330.4,55 330.4,160.4 243.9,238.8 151.2,154.8 151.2,55 				"/>
				<rect x="103.6" y="258.1" class="st17" width="280.6" height="7.9"/>
				<rect x="162.1" y="72.9" class="st18" width="78.7" height="6.6"/>
				<rect x="162.1" y="86.8" class="st16" width="154.4" height="6.6"/>
				<rect x="162.1" y="99.9" class="st16" width="154.4" height="6.6"/>
				<rect x="162.1" y="113" class="st16" width="154.4" height="6.6"/>
				<rect x="162.1" y="126.2" class="st16" width="154.4" height="6.6"/>
				<rect x="162.1" y="139.3" class="st16" width="154.4" height="6.6"/>
			</g>
		</g>
	</g>
</g>
</svg>
