<?xml version="1.0" encoding="utf-8"?>
<!-- Generator: Adobe Illustrator 23.0.2, SVG Export Plug-In . SVG Version: 6.00 Build 0)  -->
<svg version="1.1" id="Layer_1" xmlns="http://www.w3.org/2000/svg" xmlns:xlink="http://www.w3.org/1999/xlink" x="0px" y="0px"
	 viewBox="0 0 500 300" style="enable-background:new 0 0 500 300;" xml:space="preserve">
<style type="text/css">
	.st0{fill:#FFEECC;}
	.st1{fill:#855B00;}
	.st2{fill:#E7B400;}
	.st3{clip-path:url(#SVGID_2_);}
	.st4{fill:#2B2924;}
	.st5{fill:#997450;}
	.st6{fill:#F7CEAF;}
	.st7{fill:#E8BDAC;}
	.st8{fill:#FFE5CB;}
	.st9{fill:#E6E7E8;}
	.st10{fill:#97B6C4;}
	.st11{fill:#87A5AF;}
	.st12{fill:#3D5872;}
	.st13{fill:#FFFFFF;}
	.st14{fill:#70868C;}
	.st15{fill:#455256;}
	.st16{fill:#E8AF93;}
	.st17{fill:#DBA18F;}
	.st18{fill:#F9CFB3;}
	.st19{fill:#5F5C54;}
	.st20{fill:#BAD1DD;}
	.st21{fill:#78919E;}
	.st22{fill:#6A828C;}
	.st23{fill:#E4F4FF;}
	.st24{fill:#64787D;}
</style>
<rect x="-1.3" y="-3" class="st0" width="501.1" height="305"/>
<rect x="-1.3" y="-3" class="st1" width="501.1" height="188.6"/>
<polygon class="st2" points="-3.1,193 -3.1,89.3 258.3,122.8 500,89.3 500,193 245.2,297.9 "/>
<title>1</title>
<g>
	<g>
		<g>
			<defs>
				<polygon id="SVGID_1_" points="-3.1,173 -3.1,-105.9 258.3,17 500,-105.9 500,173 245.2,277.9 				"/>
			</defs>
			<clipPath id="SVGID_2_">
				<use xlink:href="#SVGID_1_"  style="overflow:visible;"/>
			</clipPath>
			<g class="st3">
				<g id="OBJECTS">
					<g id="_4">
						<path class="st4" d="M152.2,74.7l1.8-1.9L152.2,74.7z"/>
						<path class="st5" d="M229.1,110.3c-0.2-3-0.4-6.1-0.8-9.1c-3.5-25.5-25.2-47-52.5-41.8c-6.8,1.3-17.1,3.1-20,10.6
							c-12.2-1-17.5,17-19.1,26.3c-0.3,1.9-0.6,3.8-0.8,5.7c-1,8.9-0.5,17.8,0,26.7c0.4,8,2.1,17.1,6.5,23.9
							c3.4,5.3,8.5,12.9,14.2,16c11.8,6.3,24.5,5.7,37.2,3.7c6.3-1,12.8-1.2,18.3-5.2c6.8-4.9,10.2-9.5,12.4-17.7
							C228.1,136.7,229.7,123.5,229.1,110.3z"/>
						<path class="st6" d="M162.4,172.2c-1.9,9.1,21.8,26.6,21.8,26.6l15.8-8.1l-37.6-38.1C162.4,152.7,164.2,163.1,162.4,172.2z"/>
						<path class="st7" d="M206.4,148.6c1.6-11-44,4.1-44,4.1l39.6,40.5l7.9-17.9C206.4,166.8,205.2,157.7,206.4,148.6z"/>
						<path class="st8" d="M207.1,148.3c2.4-3.2,2.9-6.8,3.3-10.5c0.2-1.6,1.7-2.1,3.1-3c2.8-1.9,3.5-3.7,4.3-8
							c1.4-7.1,2.9-9.6-4.5-12c-13.7-4.5-30.6-9.6-42.8-18c-2.7-1.8-13-6.7-12.7-10.4c-0.8,7.5-4.7,12.5-8.4,18.6c0,0,0,0,0,0.1
							c-1,2.4-2.3,4.6-3.8,6.7c-1,1.8-1.9,3.7-2.6,5.7c-0.3,1.3-0.3,2.7-0.1,4.1c0.3,2.2,1.8,13,6.7,13.3c1.2,0.1,1.8,1.4,2,2.6
							c1.5,8.6,7.4,14.6,13.9,20.5l1.3,1.2c5,4.5,10,6.5,14.9,6.2c4.9,0.3,9.9-1.7,14.9-6.2c0.9-0.8,1.9-1.7,2.8-2.5
							C202.1,154.2,204.7,151.4,207.1,148.3z"/>
						<path class="st9" d="M206.3,211.6c-4.9-6.4-12.3-13.3-20.6-15.5c-8.2,2.1-15.6,9-20.6,15.5c-0.7,0.9-0.9,2.1-0.4,3.2
							l20.3,47.9c0.2,0.3,0.4,0.7,0.6,0.9c0.3-0.3,0.5-0.6,0.6-0.9l20.4-47.9C207.2,213.7,207,212.5,206.3,211.6z"/>
						<path class="st10" d="M185.5,283.9c0-0.8,0.1-1.3,0.2-1.3c0.1,0,0,0.4,0,1.3h0.2l-0.1-26.9l-0.1,0.4c-1.9-6-3.7-12.1-5.6-18.1
							c-6.3-20.5-12.6-40.9-18.8-61.4c0.3,0.9-12.3,8.7-13.8,9.3c-8.5,3.4-14.6,3.6-23.4,5.9c-7.3,1.9-17.6,4.3-22.2,10.6
							c-4.4,5.9-6.8,47.3-4.4,80.1L185.5,283.9z"/>
						<path class="st11" d="M273.9,283.9c2.4-32.9,0-74.2-4.4-80.1c-4.6-6.3-14.9-8.6-22.2-10.6c-8.8-2.3-14.9-2.5-23.4-5.9
							c-1.5-0.6-14.1-8.4-13.8-9.3c-6.3,20.5-12.6,40.9-18.8,61.4l-5.4,17.7V284L273.9,283.9z"/>
						<path class="st12" d="M196.7,244l-7.1-32.3c-0.2-1,0-2.1,0.5-3l2.7-5.1c0.1-0.3,0-0.7-0.2-0.9l-3.1-3.1
							c-0.8-0.6-1.5-1.4-2-2.3c-0.3-0.7-1.1-2.1-2-1.5s-1.1,1.4-1.6,2.1c-0.6,0.7-1.3,1.4-2,2c-0.9,0.9-1.9,1.8-2.8,2.8
							c-0.2,0.2-0.3,0.6-0.2,0.9l2.7,5.1c0.5,0.9,0.6,2,0.4,3l-7.2,32.3c0,0.2,0,0.3,0,0.5l9.9,25.4c0.6,0.6,1.5,0.6,2.1,0l9.9-25.4
							C196.8,244.3,196.8,244.2,196.7,244z"/>
						<path class="st13" d="M214.6,187.9l-5.3-15.3l-4.3,7.8c-4.9,6.8-15.4,13.7-19.2,13.8c-3.8-0.1-13.9-6.7-19.2-13.8l-4.3-7.8
							l-5.3,15.3c-0.1,0.2-0.1,0.5,0,0.7l9.8,31.6c0.3,0.9,1.5,5.6,2,0.3l5.5-9.5c0.6-1.1,1.4-2.2,2.2-3.1l9.4-11.7l9.4,11.7
							c0.8,1,1.6,2,2.2,3.1l5.5,9.5c0.5,5.3,1.7,0.6,2-0.3l9.7-31.6C214.6,188.4,214.6,188.2,214.6,187.9z"/>
						<path class="st14" d="M213.3,207.1l12.3,1.3c-1.3-3.9-4.1-23-7.7-24.9l-6.9-5.6l-14.7,43.9l-10.5,34.5l-10.5-34.5l-14.7-43.9
							l-6.9,5.6c-3.6,1.9-6.4,21-7.7,24.9l12.3-1.3l-9,16.1c-0.8,1.4,33.4,48.1,36.5,58.9c4.8-12.1,37.3-57.5,36.5-58.9L213.3,207.1
							z"/>
						<path class="st15" d="M219.4,118.2l-1.1-3l-7.1,1.4c-0.3-0.5-0.6-0.9-1-1.4c-2.4-2.5-6.7-4-12.1-4s-11.5,1.5-14.2,4.8
							l-0.1-0.1c-2.4,1.4-5.3,1.4-7.7,0L176,116c-2.7-3.3-9-4.8-14.2-4.8s-9.8,1.4-12.1,4c-0.4,0.4-0.7,0.9-1,1.4l-6.1-1.2l-0.6,3
							l5.9,1c0,0.5,0,1,0,1.5c0.6,7.2,7.5,11,14.1,11h0.5c1.2,0,2.4-0.2,3.6-0.5c5-1.3,9-5,10.8-9.8c0.3-0.6,0.4-1.3,0.4-2
							c1.7,0.5,3.5,0.5,5.3,0c0,0.7,0.2,1.4,0.4,2c1.8,4.8,5.8,8.5,10.8,9.8c1.2,0.3,2.4,0.5,3.6,0.5h0.5c6.6,0,13.6-3.8,14.1-11
							c0-0.5,0-1,0-1.5L219.4,118.2z M174.3,120.6c-1.5,4-4.8,7-8.9,8.1c-1,0.2-2,0.4-3,0.4H162c-5.3,0-10.8-2.9-11.2-8.3
							c-0.1-1.3,0.3-2.5,1.2-3.4c1.8-1.9,5.5-3,10-3c5.5,0,10.6,1.7,12.1,3.9C174.6,118.9,174.6,119.8,174.3,120.6L174.3,120.6z
							 M198.1,129h-0.4c-1,0-2-0.2-3-0.4c-4.1-1.1-7.4-4.1-8.9-8.1c-0.3-0.8-0.3-1.7,0.2-2.4c1.6-2.3,6.7-3.9,12.1-3.9
							c4.5,0,8.2,1.2,10,3c0.9,0.9,1.3,2.2,1.2,3.4C208.8,126.2,203.3,129,198.1,129L198.1,129z"/>
						<polygon class="st16" points="266.8,168.2 294.3,193.4 303,183.5 266.8,147.4 						"/>
						<polygon class="st17" points="317.2,141.8 266.8,144.8 266.8,147.4 303,183.5 317.2,167.4 						"/>
						<path class="st18" d="M336.2,101.2c-0.1-1.8-1-4.7-3.3-3c-1,0.8-0.5,2.6-1.5,3.3c-2.4,1.5-2.6-1.9-2.7-3.4
							c-0.6-5.8,2-11.4,1.3-17.1c-1-8-8.4-13.4-15.4-16.1c-7.5-2.6-15.7-2.7-23.2-0.2c-7.6-2.5-15.8-2.5-23.3,0.2
							C261,67.6,253.6,73,252.7,81c-0.7,5.7,1.9,11.3,1.3,17.1c-0.2,1.5-0.4,5-2.7,3.4c-1-0.6-0.5-2.5-1.5-3.3
							c-2.3-1.7-3.2,1.3-3.3,3c-0.5,6.5,0.7,12.9,3.4,18.8c1.6,3.3,3.9,4.2,6.1,6.6c2.5,2.6,2.1,7.8,3,11.1c0.6,2.2,1.6,4.2,2.9,6.1
							c2.8,3.8,7.6,5.6,10.7,9.1c3,3.2,5.7,6.5,9.8,8.6c2.5,1.3,5.9,1.3,9,1.2c3.2,0.2,6.6,0.1,9-1.2c4.1-2.1,6.8-5.3,9.8-8.6
							c3.2-3.5,8-5.3,10.7-9.1c1.3-1.8,2.3-3.9,2.9-6.1c0.9-3.3,0.5-8.5,3-11.1c2.2-2.4,4.5-3.3,6.1-6.6
							C335.5,114.1,336.7,107.6,336.2,101.2z"/>
						<path class="st19" d="M249.4,93.3c0.9,2.9,1.2,6,1,9.1c0,0.4,0,1.2,0,1.8h4.2c0-0.9,0-1.7,0-2.2c-0.1-2.2-0.1-4.5,0.1-6.7
							c0.2-3.2-0.2-6.5,0.1-9.7c0.8-8.4,8-14.3,16-15c5.9-0.5,11.8,0.7,17.7,0.8c7.3,0,10.6-3.5,16.3-7.1c1.5-1,0.6-1.1,2.2-0.7
							c1,0.3,2.4,1.7,3.3,2.2c5.4,3.3,15.2,6.6,16.8,13.7c1.2,5.5,1,11.2,0.8,16.8c-0.4,2.6-0.5,5.3-0.5,7.9h3.3
							c1-3.4,2.4-8,2.8-9.8c1.4-7.1,1-10.3,1.4-13.3c1.2-10.8,1.8-21.1-4.9-30.1c-7.1-9.7-17.7-15.3-23.3-14.6
							c-0.3,0-4.1,0.4-3.6,0.8c-2-1.8-5.5-1.9-8-2.5c-13.2-3.1-29.9,5.1-39.5,13.8c-10.1,9.3-8.6,21.2-7.5,32.6
							C248.3,85,248.3,89.5,249.4,93.3z"/>
						<path class="st20" d="M266.8,212.4C266.6,210.6,291,185,291,185h3.1l23.1,25.8L293,275.4L266.8,212.4z"/>
						<path class="st12" d="M304.7,239.5l-8.2-37.4c-0.3-1.2-0.1-2.5,0.5-3.5l3.1-5.9c0.1-0.4,0.1-0.8-0.2-1l-3.6-3.6
							c-0.9-0.7-1.7-1.6-2.3-2.6c-0.3-0.8-1.3-2.5-2.4-1.7c-1.1,0.7-1.3,1.6-1.9,2.5c-0.7,0.8-1.5,1.6-2.4,2.4l-3.2,3.2
							c-0.3,0.3-0.4,0.7-0.2,1l3.1,5.9c0.6,1.1,0.8,2.3,0.5,3.5l-8.2,37.4c-0.1,0.2-0.1,0.4,0,0.6l11.4,29.3c0.7,0.7,1.8,0.7,2.4,0
							l0,0l11.4-29.3C304.7,239.9,304.7,239.7,304.7,239.5z"/>
						<path class="st21" d="M187.2,283.9h103.4l-0.1-21.6l-18.8-62.6l-8-26.3l-0.8,0.3c-2,0.6-7.3,2.2-14,4.2
							c-18,5.5-46.2,14-46.9,14.5c-0.8,0.5-7.4,14.1-12.9,25.6c-1.2,2.4-1.8,5-1.8,7.6L187.2,283.9z"/>
						<path class="st22" d="M396.3,226.1c0-3.7-0.9-7.4-2.5-10.8c-5.3-10.8-11.2-22.6-11.8-23c-0.8-0.5-28.9-9-46.9-14.5l-14-4.2
							l-0.9-0.3L309.1,209l-17.5,56.4v0.6l-1.1-3.7l0.1,21.6h105.6L396.3,226.1L396.3,226.1z"/>
						<path class="st23" d="M317.6,160.3l-25,22.5c-0.4,0.3-1,0.3-1.3,0l-25-22.5l-5.6,16.4l10.8,35.7l19.6-27.6
							c0.3-0.5,0.9-0.6,1.4-0.2c0.1,0.1,0.2,0.1,0.2,0.2l19.6,27.6l10.8-35.7L317.6,160.3z"/>
						<path class="st24" d="M246.6,201.9l42.6,82h5l43.3-82l-13.2-5.5l15.1-7.4c-1.2-3.8-2.7-7.5-4.3-11.2l-14-4.2l-12,35.4
							l-3.8,11.4l-14,41.4l-12.6-41.4l-7-20.7l-8.8-26.1c-2,0.6-7.3,2.2-14,4.2c-1.6,3.7-3.1,7.4-4.3,11.2l15.1,7.4L246.6,201.9z"/>
					</g>
				</g>
			</g>
		</g>
	</g>
</g>
</svg>
