<?xml version="1.0" encoding="utf-8"?>
<!-- Generator: Adobe Illustrator 22.1.0, SVG Export Plug-In . SVG Version: 6.00 Build 0)  -->
<svg version="1.1" id="OBJECTS" xmlns="http://www.w3.org/2000/svg" xmlns:xlink="http://www.w3.org/1999/xlink" x="0px" y="0px"
	 viewBox="0 0 357 300" style="enable-background:new 0 0 357 300;" xml:space="preserve">
<style type="text/css">
	.st0{fill:#855b00;}
	.st1{fill:#FAFF45;}
	.st2{fill:#E7B400;}
</style>
<rect x="-3" y="-2" class="st0" width="364" height="305"/>
<rect x="-3" y="-2" class="st1" width="225.1" height="305"/>
<polygon class="st2" points="255,304.1 35,304.1 75,145 35,-2.1 255,-2.1 356.2,153 "/>
<title>1</title>
<g>
	<path class="st1" d="M137.5,101.2c7.5,0,13.6-6.1,13.6-13.6S145,74,137.5,74s-13.6,6.1-13.6,13.6l0,0
		C124,95.1,130.1,101.2,137.5,101.2z"/>
	<path class="st1" d="M165.9,134.4c-0.1-13.6-0.2-19-0.2-19.1c-1.7-7-6.2-11.5-12.8-12.7l0,0c-2.8,0-25.7,0-27.6,0
		c-1.1,0-2.1,0.1-3.2,0.3c-6.6,1.1-11.3,5.7-13,12.8c0,0.2-0.3,28.7-0.3,42.6c1.1,1.9,2.3,3.7,5.3,3.7c1.5,0,3.1-0.7,4.1-1.8
		c1.7-1.8,1.5-3.8,1.5-5.8v-32.3h2.4v2.4c0,30.1,0,60.3,0,90.4c0,1.3,0.1,2.7,0.3,4c0.5,2.6,2.4,4,4.6,5l3.7,0.2
		c4.4-1.5,5.7-4.5,5.7-8.9c-0.2-17,0-34.1,0-51.1v-2.2h2.4v2.2c0,17,0.1,33.9,0,50.9c0,4.4,1.2,7.5,5.4,9h3.7
		c4.2-1.5,5.4-4.7,5.4-8.9c0-13.3,0-26.5,0-39.8v-53.4h2v22.6v0.9c0,1.7,1.4,3,3,3h11.2c2.1,0,3.7-1.6,3.7-3.7l0,0v-1.8
		c0-2.1-1.7-3.7-3.7-3.7l0,0H169c-1.5,0-2.8-1.3-2.8-2.8L165.9,134.4z M137.4,104.1h3.3l-1.9,4.9h-2.6l-1.8-4.9H137.4z M137.5,136.2
		l-3.5-2.8l2.2-22.2h2.5l2.2,22.2L137.5,136.2z"/>
	<path class="st1" d="M228.3,101.2c-7.5,0-13.6-6.1-13.6-13.6S220.8,74,228.3,74s13.6,6.1,13.6,13.6
		C241.9,95,235.9,101.2,228.3,101.2L228.3,101.2z"/>
	<path class="st1" d="M200,136.4c0,1.5-1.3,2.8-2.8,2.8h-0.5c-2.1,0-3.7,1.6-3.7,3.7l0,0v1.6c0,2.1,1.7,3.7,3.7,3.7l0,0h11.2
		c1.7,0,3-1.3,3-3v-23.5h2v53.4c0,13.3,0,26.5,0,39.8c0,4.2,1.2,7.4,5.4,8.9h3.7c4.2-1.5,5.5-4.7,5.4-9c-0.2-17,0-33.9,0-50.9v-2.2
		h2.4v2.2c0,17,0.1,34.1,0,51.1c0,4.4,1.4,7.4,5.7,8.9l3.7-0.2c2.2-1,4.1-2.4,4.6-5c0.2-1.3,0.3-2.6,0.3-4c0-30.1,0-60.3,0-90.4
		v-2.4h2.4v32.5c0,2-0.2,4,1.5,5.8c1.1,1.1,2.5,1.8,4.1,1.8c2.9,0,4.1-1.8,5.3-3.7c0-14-0.2-42.4-0.3-42.6
		c-1.7-7.1-6.3-11.6-13-12.8c-1.1-0.2-2.1-0.2-3.2-0.3c-1.9,0-24.8,0-27.6,0h-0.2c-6.6,1.1-11.2,5.7-12.8,12.7
		c0,0.2-0.2,5.5-0.2,19.1L200,136.4z M231.5,104.1l-1.9,4.9H227l-1.9-4.9H231.5z M224.9,133.3l2.2-22.2h2.5l2.2,22.2l-3.5,2.8
		L224.9,133.3z"/>
	<path class="st1" d="M188.4,123.6H178c-4.1,0-7.3,3.3-7.3,7.3V148c0,4.1,3.3,7.3,7.3,7.3h10.4c4.1,0,7.3-3.3,7.3-7.3v-17
		C195.8,126.9,192.5,123.6,188.4,123.6z M190.5,150H177c-0.8,0-1.5-0.7-1.5-1.5s0.7-1.5,1.5-1.5h13.5c0.8,0,1.5,0.7,1.5,1.5
		C192.1,149.3,191.4,150,190.5,150z M190.5,144H177c-0.8-0.1-1.5-0.8-1.5-1.7c0.1-0.8,0.7-1.4,1.5-1.5h13.5c0.8,0.1,1.5,0.8,1.5,1.7
		C191.9,143.3,191.3,144,190.5,144z M190.5,138H177c-0.8,0-1.5-0.7-1.5-1.5s0.7-1.5,1.5-1.5h13.5c0.8,0,1.5,0.7,1.5,1.5
		C192.1,137.3,191.4,138,190.5,138z M190.5,132H177c-0.8,0-1.5-0.7-1.5-1.5s0.7-1.5,1.5-1.5h13.5c0.8,0,1.5,0.7,1.5,1.5
		C192.1,131.3,191.4,132,190.5,132z"/>
</g>
</svg>
