<?xml version="1.0" encoding="utf-8"?>
<!-- Generator: Adobe Illustrator 22.1.0, SVG Export Plug-In . SVG Version: 6.00 Build 0)  -->
<svg version="1.1" id="OBJECTS" xmlns="http://www.w3.org/2000/svg" xmlns:xlink="http://www.w3.org/1999/xlink" x="0px" y="0px"
	 viewBox="0 0 357 300" style="enable-background:new 0 0 357 300;" xml:space="preserve">
<style type="text/css">
	.st0{fill:#855b00;}
	.st1{fill:#FAFF45;}
	.st2{fill:#E7B400;}
</style>
<rect x="-3" y="-2" class="st0" width="364" height="305"/>
<rect x="-3" y="-2" class="st1" width="225.1" height="305"/>
<polygon class="st2" points="255,304.1 35,304.1 75,145 35,-2.1 255,-2.1 356.2,153 "/>
<title>1</title>
<line class="st1" x1="149" y1="157" x2="219.7" y2="86.2"/>
<g>
	<path class="st1" d="M112.5,215c9.8,0,17.6-3.2,17.6-7.1v7.1c0,3.9-7.9,7.1-17.6,7.1c-9.7,0-17.6-3.2-17.6-7.1v-7
		C94.9,211.9,102.8,215,112.5,215z"/>
	<path class="st1" d="M249.2,124.2v-2.1h-2.5v2.4c0,30.7,0,61.4,0,92.1c0,1.3-0.1,2.7-0.3,4c-0.5,2.8-2.6,4.1-5,5.2h-3.7
		c-4.3-1.5-5.7-4.6-5.7-9c0.2-17.4,0-34.7,0-52.1v-2.2h-2.6v2.2c0,17.3-0.1,34.6,0,51.9c0,4.4-1.2,7.7-5.6,9.2h-3.6
		c-4.3-1.5-5.6-4.7-5.5-9.1c0.1-30.7,0-61.4,0-92.1V122c-0.4-1-0.9-6.2-1.3-7.7c-1.2,0.7-2,1.1-2,1.1l-1.9,1.1l-27.2,15.2
		c-0.8,0.4-1.5,0.8-2.4,1.1c-2.8,1.1-5.9-0.3-7-3.1c-0.9-2.5,0-5.3,2.3-6.6c7.5-4.3,15-8.4,22.5-12.6c3.6-2,7.1-4,10.8-6
		c3.2-1.8,6.8-2.6,10.4-2.2l8.2-0.1v1.5l1.9,4l0.3,0.9l-1.9,32.2l3.3,3.7l0,0l0,0l3.3-3.7l-1.9-32.2l0.3-0.9l1.9-4v-1.5
		c2.9,0,5.8,0,8.7,0c8.6,0.1,14.5,4.9,16.5,13.2c0.1,0.2,0.2,0.5,0.3,0.6v42.8c-0.9,1.6-1.9,3.1-3.9,3.6c-2.9,0.9-5.9-0.6-6.8-3.5
		c-0.2-0.5-0.2-1-0.2-1.5c-0.1-0.9,0-1.7,0-2.6L249.2,124.2z"/>
	<path class="st1" d="M229.7,99.4c-5.5,0.5-10.8-2.6-12.9-7.6c-2.2-5.1-0.7-11.2,3.7-14.6c1.7-1.1,3.6-2.1,5.5-2.9h4.7
		c0.5,0.2,1.1,0.5,1.6,0.7c6,2.1,9.5,8.2,8.2,14.3C239.5,94.8,235.1,98.8,229.7,99.4z"/>
	<path class="st1" d="M190.1,188.6c9.8,0,17.6-3.2,17.6-7.1v7.1c0,3.9-7.9,7.1-17.6,7.1c-9.8,0-17.6-3.2-17.6-7.1v-7.1
		C172.5,185.4,180.4,188.6,190.1,188.6z"/>
	<path class="st1" d="M190.1,197.8c9.8,0,17.6-3.2,17.6-7.1v7.1c0,3.9-7.9,7.1-17.6,7.1c-9.8,0-17.6-3.2-17.6-7.1v-7.1
		C172.5,194.7,180.4,197.8,190.1,197.8z"/>
	<path class="st1" d="M190.1,207c9.8,0,17.6-3.2,17.6-7.1v7.1c0,3.9-7.9,7.1-17.6,7.1c-9.8,0-17.6-3.2-17.6-7.1v-7.1
		C172.5,203.8,180.4,207,190.1,207z"/>
	<path class="st1" d="M190.1,216.1c9.8,0,17.6-3.2,17.6-7.1v7.1c0,3.9-7.9,7.1-17.6,7.1c-9.8,0-17.6-3.2-17.6-7.1V209
		C172.5,212.9,180.4,216.1,190.1,216.1z"/>
	<path class="st1" d="M172.5,172.4v7.1c0,3.9,7.9,7.1,17.6,7.1s17.6-3.2,17.6-7.1v-7.1c0-3.9-7.9-7.1-17.6-7.1
		C180.4,165.4,172.5,168.6,172.5,172.4z M174.2,172.4c0-2.2,6.2-5.3,15.9-5.3s15.9,3.1,15.9,5.3s-6.2,5.3-15.9,5.3
		S174.2,174.6,174.2,172.4L174.2,172.4z"/>
	<path class="st1" d="M188.7,171.6c2-0.3,2.9-0.5,2.9-0.9s-0.5-0.5-2.1-0.5c-1.2,0-2.3,0.1-3.4,0.4l-0.7-1.2
		c1.2-0.2,2.3-0.4,3.5-0.3v-0.9h2.4v1c2.6,0.2,4,0.9,4,1.8s-1.8,1.5-4.3,1.9c-1.8,0.2-2.6,0.5-2.6,0.9s0.9,0.6,2.3,0.6
		c1.3,0,2.6-0.2,4-0.5l0.7,1.2c-1.3,0.3-2.7,0.4-4.1,0.5v0.9h-2.4v-1c-2.7-0.2-4.3-1-4.3-1.9C184.8,172.7,185.9,172,188.7,171.6z"/>
	<path class="st1" d="M151.1,197.8c9.8,0,17.6-3.2,17.6-7.1v7.1c0,3.9-7.9,7.1-17.6,7.1c-9.7,0-17.6-3.2-17.6-7.1v-7.1
		C133.6,194.6,141.5,197.8,151.1,197.8z"/>
	<path class="st1" d="M151.1,207c9.8,0,17.6-3.2,17.6-7.1v7.1c0,3.9-7.9,7.1-17.6,7.1c-9.7,0-17.6-3.2-17.6-7.1v-7.1
		C133.6,203.8,141.5,207,151.1,207z"/>
	<path class="st1" d="M151.1,216.1c9.8,0,17.6-3.2,17.6-7.1v7.1c0,3.9-7.9,7.1-17.6,7.1c-9.7,0-17.6-3.2-17.6-7.1V209
		C133.6,212.9,141.5,216.1,151.1,216.1z"/>
	<path class="st1" d="M133.6,181.6v7.1c0,3.9,7.9,7.1,17.6,7.1s17.6-3.2,17.6-7.1v-7.1c0-3.9-7.9-7.1-17.6-7.1
		C141.5,174.6,133.6,177.7,133.6,181.6z M135.3,181.6c0-2.2,6.2-5.3,15.9-5.3s15.9,3.1,15.9,5.3s-6.2,5.3-15.9,5.3
		C141.5,186.9,135.3,183.7,135.3,181.6L135.3,181.6z"/>
	<path class="st1" d="M149.8,180.8c2-0.3,2.9-0.5,2.9-0.9c0-0.3-0.5-0.6-2.1-0.6c-1.2,0-2.3,0.1-3.4,0.3l-0.7-1.2
		c1.2-0.2,2.3-0.3,3.5-0.3v-0.9h2.4v0.9c2.6,0.2,4,0.9,4,1.9s-1.8,1.5-4.3,1.9c-1.8,0.2-2.6,0.5-2.6,0.9s0.9,0.6,2.3,0.6
		c1.3,0,2.6-0.2,4-0.5l0.7,1.2c-1.3,0.3-2.7,0.5-4,0.5v1h-2.4v-1c-2.7-0.2-4.3-1-4.3-1.9C145.9,181.8,147,181.3,149.8,180.8z"/>
	<path class="st1" d="M94.9,198.8v7.1c0,3.9,7.9,7.1,17.6,7.1c9.7,0,17.6-3.2,17.6-7.1v-7.1c0-3.9-7.9-7.1-17.6-7.1
		C102.8,191.8,94.9,195,94.9,198.8z M96.7,198.8c0-2.2,6.2-5.3,15.9-5.3s15.9,3.1,15.9,5.3s-6.2,5.3-15.9,5.3S96.7,201,96.7,198.8z"
		/>
	<path class="st1" d="M111.2,198.1c2-0.3,2.9-0.5,2.9-0.9s-0.5-0.6-2.1-0.6c-1.2,0-2.3,0.2-3.4,0.4l-0.7-1.2
		c1.2-0.2,2.3-0.3,3.5-0.3v-0.9h2.4v1c2.6,0.2,4,0.9,4,1.8s-1.8,1.5-4.3,1.9c-1.8,0.2-2.6,0.5-2.6,0.9s0.9,0.6,2.3,0.6
		c1.3,0,2.7-0.2,4-0.5l0.7,1.2c-1.3,0.3-2.7,0.5-4,0.5v0.9h-2.4v-1c-2.7-0.2-4.3-1-4.3-1.9S108.3,198.5,111.2,198.1z"/>
</g>
</svg>
