<?xml version="1.0" encoding="utf-8"?>
<!-- Generator: Adobe Illustrator 22.1.0, SVG Export Plug-In . SVG Version: 6.00 Build 0)  -->
<svg version="1.1" id="OBJECTS" xmlns="http://www.w3.org/2000/svg" xmlns:xlink="http://www.w3.org/1999/xlink" x="0px" y="0px"
	 viewBox="0 0 357 300" style="enable-background:new 0 0 357 300;" xml:space="preserve">
<style type="text/css">
	.st0{fill:#855b00;}
	.st1{fill:#FAFF45;}
	.st2{fill:#E7B400;}
</style>
<rect x="-3" y="-2" class="st0" width="364" height="305"/>
<rect x="-3" y="-2" class="st1" width="225.1" height="305"/>
<polygon class="st2" points="255,304.1 35,304.1 75,145 35,-2.1 255,-2.1 356.2,153 "/>
<title>1</title>
<path class="st1" d="M133.4,200.8v-1h1.2v43.9c0,0.6,0,1.2,0.1,1.8c0.3,1.2,1.2,2,2.3,2.4h1.7c1.7-0.6,2.9-2.3,2.6-4.1
	c0-8.1,0-16.1,0-24.1v-1.1h1.2v1.1c0,8,0,16.1,0,24c-0.3,1.8,0.8,3.7,2.6,4.3h1.7c1.7-0.6,2.8-2.4,2.6-4.2c0-14.2,0-28.5,0-42.8
	v-1.2h1.2v1.1c0,4.8,0,9.6,0,14.5c0,0.4,0,0.8,0,1.2c0.1,1.2,1.2,2.3,2.5,2.2c0.1,0,0.1,0,0.2,0c1.3,0,2.3-1.1,2.3-2.4
	c0,0,0,0,0-0.1c0-4,0-8,0-12c0-1.9,0-3.8,0-5.8c0.2-4.2-3.1-7.7-7.3-7.9c-0.2,0-0.3,0-0.5,0h-4.1v0.7l-1,1.8l-0.1,0.4l0.9,14.9
	l-1.5,1.7l0,0l-1.5-1.7l0.9-14.9l-0.1-0.4l-1-1.8v-0.7h-4c-3.7-0.2-7,2.5-7.7,6.2c0,0.1-0.1,0.2-0.1,0.3V217c0.4,0.8,1,1.3,1.8,1.5
	c1.3,0.4,2.8-0.3,3.2-1.6c0.1-0.2,0.1-0.5,0.1-0.7c0-0.4,0-0.8,0-1.2C133.4,210.3,133.4,205.5,133.4,200.8z"/>
<path class="st1" d="M141.4,189.3c2.6,0.3,5-1.2,6-3.6c1.1-2.4,0.3-5.2-1.7-6.7c-0.8-0.5-1.6-1-2.5-1.3H141
	c-0.3,0.1-0.5,0.2-0.8,0.3c-2.8,1-4.3,3.8-3.8,6.6C136.8,187.1,138.9,189,141.4,189.3z"/>
<path class="st1" d="M174.5,200.8v-1h1.2v43.9c0,0.6,0,1.2,0.1,1.8c0.3,1.2,1.2,2,2.3,2.4h1.7c1.7-0.6,2.9-2.3,2.6-4.1
	c0-8.1,0-16.1,0-24.1v-1.1h1.2v1.1c0,8,0,16.1,0,24c-0.3,1.8,0.8,3.7,2.6,4.3h1.7c1.7-0.6,2.8-2.4,2.6-4.2c0-14.2,0-28.5,0-42.8
	v-1.2h1.2v15.5c0,0.4,0,0.8,0.1,1.2c0.2,1.3,1.5,2.3,2.9,2.1c1.2-0.2,2.1-1.2,2.1-2.4c0-4,0-8,0-12c0-1.9,0-3.8,0-5.8
	c0.2-4.2-3.1-7.7-7.3-7.9c-0.2,0-0.3,0-0.5,0h-4.2v0.7l-0.9,1.8l-0.2,0.4l0.9,14.9L183,210l0,0l-1.5-1.7l0.9-14.9l-0.1-0.4l-1-1.8
	v-0.7h-4c-3.7-0.1-7,2.5-7.7,6.2c0,0.1-0.1,0.2-0.1,0.3v19.9c0.4,0.8,1,1.3,1.8,1.5c1.3,0.4,2.8-0.3,3.2-1.6
	c0.1-0.2,0.1-0.5,0.1-0.7c0-0.4,0-0.8,0-1.2L174.5,200.8L174.5,200.8z"/>
<path class="st1" d="M182.4,189.3c2.6,0.3,5-1.2,6-3.6c1.1-2.4,0.3-5.2-1.7-6.7c-0.8-0.5-1.6-1-2.5-1.3H182
	c-0.3,0.1-0.5,0.2-0.8,0.3c-2.8,1-4.3,3.8-3.8,6.6C177.9,187.1,179.9,189,182.4,189.3z"/>
<path class="st1" d="M215.6,200.8v-1h1.2v1.2c0,14.2,0,28.5,0,42.8c0,0.6,0,1.2,0.1,1.8c0.3,1.2,1.2,2,2.3,2.4h1.7
	c1.8-0.6,2.9-2.3,2.6-4.1c0-8.1,0-16.1,0-24.1v-1.1h1.2v1.1c0,8,0,16.1,0,24c-0.3,1.8,0.8,3.7,2.6,4.3h1.7c1.7-0.6,2.8-2.4,2.6-4.2
	c0-14.2,0-28.5,0-42.8v-1.2h1.2v1.1c0,4.8,0,9.6,0,14.5c0,0.4,0,0.8,0,1.2c0.2,1.3,1.4,2.4,2.8,2.2c1.2-0.1,2.2-1.2,2.2-2.5
	c0-4,0-8,0-12c0-1.9,0-3.8,0-5.8c0.2-4.2-3.1-7.7-7.3-7.9c-0.2,0-0.3,0-0.5,0h-4.2v0.7l-0.9,1.8l-0.1,0.4l0.9,14.9l-1.5,1.7l0,0
	l-1.5-1.7l0.9-14.9l-0.1-0.4l-1-1.8v-0.7h-4c-3.7-0.2-7,2.5-7.7,6.2c0,0.1-0.1,0.2-0.1,0.3v19.9c0.4,0.8,1,1.3,1.8,1.5
	c1.3,0.4,2.8-0.3,3.2-1.6c0.1-0.2,0.1-0.5,0.1-0.7c0-0.4,0-0.8,0-1.2L215.6,200.8z"/>
<path class="st1" d="M223.5,189.3c2.6,0.3,5-1.2,6-3.6c1.1-2.4,0.3-5.2-1.7-6.7c-0.8-0.5-1.6-1-2.5-1.3H223
	c-0.3,0.1-0.5,0.2-0.8,0.3c-2.8,1-4.3,3.8-3.8,6.6C218.9,187.1,221,189,223.5,189.3z"/>
<path class="st1" d="M168.8,82.8v-1.5h1.9v73.5c0,1.1,0.1,2.1,0.2,3.2c0.5,1.9,2,3.5,3.8,4h2.9c3.4-1.2,4.4-3.6,4.4-7
	c0-13.5,0-27,0-40.5v-1.9h1.9v1.7c0,13.5,0,26.8,0,40.4c0,3.5,1,6,4.3,7.2h2.9c3.4-1.2,4.3-3.7,4.3-7.1c0-23.8,0-47.8,0-71.6v-1.9
	h1.8v1.6c0,8.1,0,16.1,0,24.2c0,0.7,0,1.3,0.1,2c0.3,2.3,2.4,3.9,4.7,3.7c2.1-0.3,3.7-2,3.7-4.1c0-6.7,0-13.4,0-20.1
	c0-3.2,0-6.4,0-9.6c0.3-7-5.1-12.9-12.1-13.2c-0.3,0-0.6,0-0.9,0c-2.4,0-4.7,0-7.1,0V67l-1.5,3.2l-0.2,0.7l1.3,24.9l-2.6,2.9l0,0
	l0,0l-2.7-2.9l1.4-25l-0.2-0.7l-1.5-3.2v-1.2c-2.2,0-4.5,0-6.7,0c-6.2-0.3-11.7,4.1-12.8,10.3c-0.1,0.2-0.1,0.4-0.2,0.5v33.4
	c0.6,1.3,1.6,2.3,3.1,2.8c2.2,0.7,4.6-0.6,5.3-2.8c0.1-0.4,0.2-0.8,0.2-1.1c0-0.7,0-1.3,0-2L168.8,82.8z"/>
<path class="st1" d="M182,63.5c4.3,0.4,8.4-2,10-6c1.7-4,0.6-8.7-2.9-11.3c-1.3-0.9-2.8-1.6-4.2-2.2h-3.7c-0.4,0.2-0.9,0.4-1.2,0.6
	c-4.6,1.6-7.3,6.4-6.3,11.2C174.4,59.9,177.8,63,182,63.5z"/>
<path class="st1" d="M251.4,202.6c-2,0-3.7-1.6-3.7-3.7v-27.2H118.2V199c0.1,2-1.4,3.7-3.5,3.9c-2,0.1-3.7-1.4-3.9-3.5
	c0-0.2,0-0.3,0-0.5v-30.8c0-2,1.6-3.7,3.7-3.7l0,0h136.9c2,0,3.7,1.6,3.7,3.7l0,0V199C255.1,201,253.5,202.6,251.4,202.6z"/>
<path class="st1" d="M227.8,141.3L227.8,141.3c0.2,0,0.4,0,0.6,0h0.2l0.4-0.1l0.2-0.1l0.3-0.2c0.1,0,0.1-0.1,0.2-0.1h0.1l0.1-0.2
	l0.1-0.1l7.9-10.1c0.9-1.2,0.7-2.8-0.5-3.7c-1.2-0.9-2.8-0.7-3.7,0.5l0,0l-6,7.7l-2.8-2.9c-1-1.1-2.7-1.2-3.7-0.1
	c-1.1,1-1.2,2.7-0.1,3.7l0.1,0.1l4.9,5.1l0.1,0.1l0.1,0.1h0.1l0.2,0.1l0.3,0.2h0.2c0.1,0,0.2,0.1,0.3,0.1h0.1L227.8,141.3z"/>
<path class="st1" d="M231.7,120.8c0-1.2-1-2.2-2.2-2.2s-2.2,1-2.2,2.2s1,2.2,2.2,2.2C230.7,123.1,231.7,122.1,231.7,120.8
	L231.7,120.8z"/>
<path class="st1" d="M213.1,134.5c0,1.2,1,2.2,2.2,2.2s2.2-1,2.2-2.2s-1-2.2-2.2-2.2l0,0C214.1,132.3,213.1,133.2,213.1,134.5
	L213.1,134.5z"/>
<path class="st1" d="M242.4,136.7c1.2,0,2.2-1,2.2-2.2s-1-2.2-2.2-2.2s-2.2,1-2.2,2.2S241.2,136.7,242.4,136.7L242.4,136.7z"/>
<path class="st1" d="M245.4,116.1c-10.2-8.7-25.5-7.3-34,2.9c-8.7,10.2-7.3,25.5,2.9,34c10.2,8.7,25.5,7.3,34-2.9
	c3.7-4.3,5.7-9.9,5.7-15.6C253.8,127.4,250.8,120.7,245.4,116.1z M229.2,152.9c-10.2-0.1-18.3-8.5-18.2-18.6
	c0.1-10.2,8.5-18.3,18.6-18.2c10.1,0.1,18.2,8.4,18.2,18.4C247.7,144.8,239.4,152.9,229.2,152.9L229.2,152.9z"/>
<path class="st1" d="M229.5,150.3c1.2,0,2.2-1.1,2.2-2.2c0-1.2-1.1-2.2-2.2-2.2c-1.2,0-2.2,1-2.2,2.2
	C227.2,149.3,228.3,150.3,229.5,150.3C229.4,150.3,229.5,150.3,229.5,150.3z"/>
</svg>
