<?xml version="1.0" standalone="no"?>
<svg width="537" height="146" xmlns="http://www.w3.org/2000/svg">
  <style type="text/css">
  .st1{fill:#F5F5F5;}
  </style>
 <g>
  <title>Layer 1</title>
  <text font-weight="bold" xml:space="preserve" text-anchor="start" font-family="'Trebuchet MS', Gadget, sans-serif" font-size="48" id="svg_1" y="108.453125" x="194" stroke-width="0" stroke="#000" class="st1">ASITANE UNITY</text>
  <g stroke="null" id="svg_9">
   <g id="svg_5" class="st1" transform="matrix(0.10933565426203948,0,0,-0.12535191671473456,-0.6213316269172253,140.38841984729987) ">
    <path stroke="null" id="svg_6" d="m317.774566,698.582518c-93,-221 -198,-465 -232,-542c-35,-77 -63,-145 -63,-151c0,-16 48,-24 139,-24l77,0l189,443c104,243 208,480 231,527l42,85l47,-100c26,-55 85,-188 132,-295c233,-536 286,-650 311,-658c29,-9 8,69 -59,222c-70,157 -313,724 -359,839l-24,57l-130,0l-131,0l-170,-403z"/>
    <path stroke="null" id="svg_7" d="m846.774566,1060.582518c7,-41 98,-275 163,-418c25,-55 36,-72 45,-63c9,9 25,278 27,470l1,52l-121,0l-122,0l7,-41z"/>
    <path stroke="null" id="svg_8" d="m1439.774566,562.582518l6,-540l-48,-3c-29,-2 -50,-8 -53,-16c-3,-11 25,-13 146,-10c91,2 155,7 162,14c15,15 28,306 33,732l4,362l-129,0l-128,0l7,-539z"/>
   </g>
  </g>
  <text xml:space="preserve" text-anchor="start" font-family="'Trebuchet MS', Gadget, sans-serif" 
    font-size="28" id="svg_11" y="140" x="193" stroke-width="0" stroke="#000" class="st1">CONSULTING &amp; SOLUTIONS</text>
 </g>
</svg>