<?xml version="1.0" encoding="utf-8"?>
<!-- Generator: Adobe Illustrator 23.0.4, SVG Export Plug-In . SVG Version: 6.00 Build 0)  -->
<svg version="1.1" id="Layer_1" xmlns="http://www.w3.org/2000/svg" xmlns:xlink="http://www.w3.org/1999/xlink" x="0px" y="0px"
	 viewBox="0 0 270 85" style="enable-background:new 0 0 270 85;" xml:space="preserve">
<style type="text/css">
	.st0{fill:#FFFFFF;}
	.st1{fill:#FFB42E;}
	.st2{fill:#FFF82E;}
</style>
<g>
	<path class="st0" d="M76.3,57.5v0.9h-4.5v4.2h1.8c2.2,0,3.3,1.4,3.3,3.5c0,2.4-1.4,3.4-3.3,3.4h-2.9v-12
		C70.7,57.5,76.3,57.5,76.3,57.5z M71.8,68.6h1.6c1.6,0,2.5-0.7,2.5-2.4c0-1.9-1-2.6-2.7-2.6h-1.4V68.6L71.8,68.6L71.8,68.6z"/>
	<path class="st0" d="M78.7,60.7l1.8,7.2h0.1l1.9-7.2h0.9l-2.8,10.1c-0.3,1.1-0.8,1.8-1.9,1.8c-0.5,0-0.6-0.1-0.7-0.1v-0.8
		c0.1,0,0.4,0.1,0.5,0.1c1.3,0,1.3-1.1,1.6-2.2l-2.3-8.9L78.7,60.7L78.7,60.7L78.7,60.7z"/>
	<path class="st0" d="M85.1,60.7l1.7,3.4l1.7-3.4h1.1l-2.2,4.2l2.3,4.6h-1.1l-1.9-3.7l-1.8,3.7h-1.1l2.3-4.6L84,60.7H85.1z"/>
	<path class="st0" d="M94.9,60.7v0.8h-3.2v8h-0.9v-8.9L94.9,60.7L94.9,60.7z"/>
	<path class="st0" d="M101.3,69.5c-0.2,0.1-0.4,0.1-0.6,0.1c-0.5,0-0.8-0.3-0.9-0.8l0,0c-0.4,0.6-1.2,1-1.9,1c-1.6,0-2-1-2-2.3
		s0.4-2,1.4-2.4l1.8-0.8c0.5-0.2,0.6-0.5,0.6-1.4s-0.5-1.4-1.4-1.4c-1.3,0-1.3,0.8-1.4,1.6H96c0-1.6,0.8-2.4,2.4-2.4
		s2.2,0.8,2.2,2.4v5.4c0,0.5,0.1,0.6,0.6,0.6v0.6L101.3,69.5L101.3,69.5z M98,65.6c-0.9,0.4-1.2,0.8-1.2,1.8c0,0.8,0.3,1.5,1.2,1.5
		c1.5,0,1.8-1.5,1.8-2.4v-1.7C99.1,65.1,98.5,65.3,98,65.6z"/>
	<path class="st0" d="M107.9,60.7v8.9H107v-8h-2.7v4.1c0,3.3-0.7,4-1.7,4c-0.3,0-0.5,0-0.7-0.1v-0.8c0.2,0.1,0.3,0.1,0.5,0.1
		c0.6,0,1-0.4,1-3.6v-4.6h4.6L107.9,60.7L107.9,60.7z"/>
	<path class="st0" d="M114.2,60.7v0.8h-2.1v8h-0.9v-8H109v-0.8H114.2z"/>
	<path class="st0" d="M115.9,65.1c0,2.1,0.2,3.8,1.7,3.8c1.3,0,1.5-1.2,1.6-2.3h0.9c0,1.5-0.7,3.1-2.5,3.1c-2.4,0-2.6-2.8-2.6-4.6
		c0-1.8,0.1-4.7,2.5-4.7c2.1,0,2.5,2,2.5,3.7V65L115.9,65.1L115.9,65.1z M119.1,64.2c0-1.2-0.1-3-1.6-3c-1.4,0-1.6,1.9-1.6,3H119.1z
		"/>
	<path class="st0" d="M122.7,72.5h-0.9V60.7h0.9v0.8h0.1c0.3-0.5,1-1.1,1.8-1.1c2.4,0,2.7,2.5,2.7,4.3c0,2.4-0.3,5-2.6,5
		c-0.7,0-1.4-0.3-1.8-1v3.7L122.7,72.5L122.7,72.5L122.7,72.5z M122.7,64.9c0,1.7,0.1,4,1.7,4s1.8-1.9,1.8-4c0-1.4-0.2-3.6-1.8-3.6
		C122.8,61.3,122.7,63.5,122.7,64.9z"/>
	<path class="st0" d="M134.1,60.7v8.9h-0.9v-5.8c0-0.7,0.1-1.8,0.2-2.3l0,0c-0.1,0.4-0.4,1.2-0.6,1.7l-2.7,6.4h-1.2v-8.8h0.9v5.9
		c0,0.7-0.1,1.8-0.2,2.3l0,0c0.2-0.4,0.4-1.2,0.6-1.7l2.7-6.5L134.1,60.7L134.1,60.7z"/>
	<path class="st0" d="M138.4,65.8l-2,3.7h-1.1l2.1-3.8c-1-0.2-1.7-1.1-1.7-2.4c0-1.5,0.8-2.5,2.4-2.5h2.7v8.9h-0.9V66h-1.5V65.8
		L138.4,65.8L138.4,65.8z M139.8,61.5h-1.6c-1,0-1.6,0.5-1.6,1.7c0,1.3,0.6,1.7,1.6,1.7h1.6V61.5z"/>
	<path class="st0" d="M148.7,67.4c-1.2,0-2.1-0.9-2.1-2.1s0.9-2.1,2.1-2.1c1.1,0,2.1,0.9,2.1,2.1S149.9,67.4,148.7,67.4z"/>
	<path class="st0" d="M160.2,57.5l3.2,12h-1.1l-0.9-3.7h-3.6l-1,3.7h-1l3.2-12H160.2z M161.2,64.9l-1.6-6.1h-0.1l-1.6,6.1H161.2z"/>
	<path class="st0" d="M164.4,60.7l1.8,7.2h0.1l1.9-7.2h0.9l-2.8,10.1c-0.3,1.1-0.8,1.8-1.9,1.8c-0.5,0-0.6-0.1-0.7-0.1v-0.8
		c0.1,0,0.4,0.1,0.5,0.1c1.3,0,1.3-1.1,1.6-2.2l-2.3-8.9L164.4,60.7L164.4,60.7L164.4,60.7z"/>
	<path class="st0" d="M175,60.7v8h0.7V72h-0.8v-2.4h-5.3V72h-0.8v-3.2h0.6c0.7-1.3,1.2-2.6,1.2-5.5v-2.5
		C170.6,60.7,175,60.7,175,60.7z M171.6,61.5v2.1c0,2.4-0.5,4-1.1,5.1h3.7v-7.2C174.2,61.5,171.6,61.5,171.6,61.5z"/>
	<path class="st0" d="M182.4,60.7v8.9h-0.9v-5.8c0-0.7,0.1-1.8,0.2-2.3l0,0c-0.1,0.4-0.4,1.2-0.6,1.7l-2.7,6.4h-1.2v-8.8h0.9v5.9
		c0,0.7-0.1,1.8-0.2,2.3l0,0c0.2-0.4,0.4-1.2,0.6-1.7l2.7-6.5L182.4,60.7L182.4,60.7z"/>
	<path class="st0" d="M188.7,60.7v0.8h-2.1v8h-0.9v-8h-2.1v-0.8H188.7z"/>
	<path class="st0" d="M195.7,67.4c-1.2,0-2.1-0.9-2.1-2.1s0.9-2.1,2.1-2.1c1.2,0,2.1,0.9,2.1,2.1S196.9,67.4,195.7,67.4z"/>
	<path class="st0" d="M204.8,63.5l4.3-6h1.2l-3.5,4.8l3.7,7.2h-1.2l-3.3-6.3l-1.4,1.7v4.6h-1.1v-12h1.1L204.8,63.5L204.8,63.5z"/>
	<path class="st0" d="M211.1,65.1c0-1.9,0.3-4.6,2.8-4.6s2.8,2.6,2.8,4.6s-0.3,4.7-2.8,4.7C211.4,69.8,211.1,67.1,211.1,65.1z
		 M215.7,65.1c0-1.4-0.2-3.8-1.8-3.8s-1.8,2.4-1.8,3.8c0,1.7,0.2,3.8,1.8,3.8C215.5,69,215.7,66.9,215.7,65.1z"/>
	<path class="st0" d="M219.2,64.4h3.2v-3.7h0.9v8.9h-0.9v-4.3h-3.2v4.3h-0.9v-8.8h0.9V64.4z"/>
	<path class="st0" d="M230.1,66.6c0,1.7-0.6,3.2-2.4,3.2c-2.6,0-2.7-2.7-2.7-4.7c0-1.9,0.2-4.6,2.6-4.6c1.6,0,2.4,1.4,2.4,2.8h-1
		c0-1-0.5-2-1.6-2c-1.5,0-1.7,2-1.7,4c0,1.9,0.2,3.7,1.8,3.7c1.3,0,1.4-1.4,1.5-2.3C229.1,66.6,230.1,66.6,230.1,66.6z"/>
	<path class="st0" d="M236.8,69.5c-0.2,0.1-0.4,0.1-0.6,0.1c-0.5,0-0.8-0.3-0.9-0.8l0,0c-0.4,0.6-1.2,1-1.9,1c-1.6,0-2-1-2-2.3
		s0.4-2,1.4-2.4l1.8-0.8c0.5-0.2,0.6-0.5,0.6-1.4s-0.5-1.4-1.4-1.4c-1.3,0-1.3,0.8-1.4,1.6h-0.9c0-1.6,0.8-2.4,2.4-2.4
		c1.6,0,2.2,0.8,2.2,2.4v5.4c0,0.5,0.1,0.6,0.6,0.6v0.6L236.8,69.5L236.8,69.5z M233.5,65.6c-0.9,0.4-1.2,0.8-1.2,1.8
		c0,0.8,0.3,1.5,1.2,1.5c1.5,0,1.8-1.5,1.8-2.4v-1.7C234.6,65.1,234.1,65.3,233.5,65.6z"/>
	<path class="st0" d="M243.5,60.7v8.9h-0.9v-8h-2.7v4.1c0,3.3-0.7,4-1.7,4c-0.3,0-0.5,0-0.7-0.1v-0.8c0.2,0.1,0.3,0.1,0.5,0.1
		c0.6,0,1-0.4,1-3.6v-4.6h4.6L243.5,60.7L243.5,60.7z"/>
	<path class="st0" d="M249.7,60.7v0.8h-2.1v8h-0.9v-8h-2.1v-0.8H249.7z"/>
	<path class="st0" d="M256.1,60.7v8.9h-0.9v-5.8c0-0.7,0.1-1.8,0.2-2.3l0,0c-0.1,0.4-0.4,1.2-0.6,1.7l-2.7,6.4H251v-8.8h0.9v5.9
		c0,0.7-0.1,1.8-0.2,2.3l0,0c0.2-0.4,0.4-1.2,0.6-1.7l2.7-6.5L256.1,60.7L256.1,60.7z"/>
	<path class="st0" d="M259,64.4h3.2v-3.7h0.9v8.9h-0.9v-4.3H259v4.3h-1v-8.8h0.9v3.6H259z"/>
	<path class="st0" d="M269.1,60.7v0.8h-3.2v8H265v-8.9L269.1,60.7L269.1,60.7z"/>
</g>
<polygon class="st1" points="11.5,59 1.4,42.7 17,42.7 27.9,59 "/>
<polygon class="st1" points="22.8,76.1 16.2,64.7 31.8,64.7 39.2,76.1 "/>
<polygon class="st1" points="45.8,42 34.4,26.3 50,26.3 61.8,42 "/>
<polygon class="st2" points="34.3,25.3 11.5,59 28,59 42.5,37 "/>
<polygon class="st2" points="23.8,8 1.4,42.7 17,42.7 31,20.1 "/>
<polygon class="st2" points="45.8,42 22.8,76.1 39.3,76.1 61.8,42 "/>
<polygon class="st1" points="31,19.9 24,8.5 39.6,8.5 47,19.9 "/>
<g>
	<path class="st0" d="M71.3,46L77,20.4h3.1L85.8,46h-3.7L81,40.5h-5L75,46H71.3z M80.4,37l-1.8-9.3h-0.1L76.7,37H80.4z"/>
	<path class="st0" d="M87.4,53.4V27.7H91v1.7c0.5-0.5,0.9-1,1.4-1.3c0.5-0.4,1.2-0.5,2.1-0.5c1.5,0,2.6,0.6,3.2,1.7
		c0.2,0.4,0.4,0.9,0.5,1.5c0.1,0.6,0.1,1.4,0.1,2.4v6.9c0,1.3,0,2.3-0.1,2.9c-0.1,1.2-0.7,2.1-1.7,2.7c-0.5,0.3-1.2,0.5-2.1,0.5
		c-0.7,0-1.4-0.2-1.9-0.5s-1.1-0.8-1.5-1.4H91v9H87.4z M94.7,33.7c0-0.7-0.1-1.3-0.4-1.8c-0.3-0.5-0.7-0.7-1.4-0.7
		c-0.6,0-1,0.2-1.3,0.6c-0.3,0.4-0.5,1-0.5,1.6v7.1c0,0.6,0.2,1.1,0.5,1.4c0.3,0.4,0.8,0.6,1.3,0.6c0.7,0,1.2-0.2,1.4-0.6
		s0.4-0.9,0.4-1.5V33.7z"/>
	<path class="st0" d="M101.4,46V27.7h3.7v1.9c0.7-0.7,1.5-1.2,2.2-1.6c0.7-0.4,1.6-0.6,2.7-0.6v3.9c-0.4-0.1-0.7-0.2-1.1-0.2
		c-0.4,0-0.8,0.1-1.2,0.2c-0.4,0.1-0.8,0.4-1.2,0.7c-0.4,0.3-0.7,0.7-0.9,1.2c-0.2,0.5-0.4,1.1-0.4,1.9V46H101.4z"/>
	<path class="st0" d="M111.4,24v-3.7h3.7V24H111.4z M111.4,46V27.7h3.7V46H111.4z"/>
	<path class="st0" d="M117.8,33.9c0-0.7,0-1.4,0.1-2.1c0.1-0.6,0.3-1.2,0.5-1.7c0.4-0.8,1-1.4,1.9-1.9c0.8-0.5,1.8-0.7,2.9-0.7
		c1.2,0,2.1,0.2,2.9,0.7c0.8,0.5,1.4,1.1,1.9,1.9c0.3,0.5,0.4,1,0.5,1.7c0.1,0.6,0.1,1.3,0.1,2.1v6c0,0.7,0,1.4-0.1,2.1
		c-0.1,0.6-0.3,1.2-0.5,1.7c-0.4,0.8-1.1,1.4-1.9,1.9s-1.8,0.7-2.9,0.7c-1.2,0-2.1-0.2-2.9-0.7c-0.8-0.5-1.4-1.1-1.9-1.9
		c-0.3-0.5-0.4-1-0.5-1.7c-0.1-0.6-0.1-1.3-0.1-2.1V33.9z M121.4,40.4c0,0.7,0.2,1.2,0.5,1.6c0.3,0.3,0.8,0.5,1.3,0.5
		c0.6,0,1-0.2,1.3-0.5c0.3-0.3,0.5-0.9,0.5-1.6v-7.2c0-0.7-0.2-1.2-0.5-1.6c-0.3-0.3-0.8-0.5-1.3-0.5c-0.6,0-1,0.2-1.3,0.5
		c-0.3,0.3-0.5,0.9-0.5,1.6V40.4z"/>
	<path class="st0" d="M131.4,46V27.7h3.7v1.9c0.7-0.7,1.5-1.2,2.2-1.6c0.7-0.4,1.6-0.6,2.7-0.6v3.9c-0.4-0.1-0.7-0.2-1.1-0.2
		s-0.8,0.1-1.2,0.2c-0.4,0.1-0.8,0.4-1.2,0.7c-0.4,0.3-0.7,0.7-0.9,1.2c-0.2,0.5-0.4,1.1-0.4,1.9V46H131.4z"/>
	<path class="st0" d="M141.4,24v-3.7h3.7V24H141.4z M141.4,46V27.7h3.7V46H141.4z"/>
	<path class="st0" d="M154.8,46V20.4h3.7v9h0.1c0.4-0.6,0.9-1.1,1.5-1.4c0.6-0.3,1.2-0.5,1.9-0.5c0.9,0,1.6,0.2,2.1,0.5
		c0.5,0.3,0.9,0.7,1.2,1.2c0.2,0.4,0.4,0.9,0.5,1.5s0.1,1.6,0.1,2.9v6.9c0,1,0,1.8-0.1,2.4s-0.3,1.1-0.5,1.5
		c-0.6,1.2-1.7,1.7-3.2,1.7c-0.9,0-1.6-0.2-2.1-0.5c-0.5-0.4-0.9-0.8-1.4-1.3V46H154.8z M162.1,33.3c0-0.6-0.1-1.1-0.4-1.5
		s-0.7-0.6-1.4-0.6c-0.5,0-1,0.2-1.3,0.6c-0.3,0.4-0.5,0.8-0.5,1.4v7.1c0,0.7,0.2,1.2,0.5,1.6c0.3,0.4,0.8,0.6,1.3,0.6
		c0.6,0,1.1-0.2,1.4-0.7c0.3-0.5,0.4-1.1,0.4-1.8V33.3z"/>
	<path class="st0" d="M166.8,27.7h3.9l2.5,11.4h0.1l2.5-11.4h3.8l-5.3,21.4c-0.2,0.8-0.5,1.5-0.8,2s-0.8,1-1.2,1.3
		c-0.5,0.3-0.9,0.6-1.5,0.7c-0.5,0.1-1,0.2-1.6,0.2h-1v-3.5h0.8c0.4,0,0.7,0,0.9-0.1c0.3-0.1,0.5-0.3,0.7-0.6
		c0.2-0.3,0.4-0.8,0.5-1.4s0.4-1.5,0.6-2.5L166.8,27.7z"/>
	<path class="st0" d="M187.7,26.4c0-1,0.2-1.9,0.5-2.7c0.4-0.8,0.8-1.5,1.4-2c0.6-0.5,1.2-0.9,2-1.2c0.7-0.3,1.5-0.4,2.2-0.4
		s1.5,0.1,2.2,0.4c0.7,0.3,1.4,0.6,2,1.2c0.6,0.5,1,1.2,1.4,2c0.4,0.8,0.5,1.7,0.5,2.7v1.3h-3.7v-1.3c0-0.9-0.2-1.5-0.7-2
		c-0.5-0.4-1.1-0.6-1.7-0.6s-1.3,0.2-1.7,0.6s-0.7,1.1-0.7,2v13.5c0,0.9,0.2,1.5,0.7,2s1.1,0.6,1.7,0.6s1.3-0.2,1.7-0.6
		c0.5-0.4,0.7-1.1,0.7-2v-4.8h-2.9v-3.2h6.6v8.1c0,1.1-0.2,2-0.5,2.8c-0.4,0.8-0.8,1.4-1.4,1.9c-0.6,0.5-1.3,0.9-2,1.2
		s-1.5,0.4-2.2,0.4s-1.5-0.1-2.2-0.4c-0.7-0.3-1.4-0.7-2-1.2c-0.6-0.5-1.1-1.1-1.4-1.9c-0.4-0.8-0.5-1.7-0.5-2.8V26.4z"/>
	<path class="st0" d="M203.3,46V20.4h10.9v3.5H207v7.8h6.3V35H207V46H203.3z"/>
</g>
</svg>
